<svg id="Layer_1" xmlns="http://www.w3.org/2000/svg" viewBox="0 0 400 1000">
  <style>
    .st0{display:none;} .st1{display:inline;} .st2{display:inline;fill:#4CB748;} .st3{display:inline;fill:#FFFFFF;} .st4{fill:#FFFFFF;} .st5{fill:#4EE700;} .st6{fill:#010101;}
  </style>
  <g id="blank_copy" class="st0">
    <path class="st1" d="M33.5 223.9c-8.9 0-16 7.1-16 16s7.1 16 16 16 16-7.1 16-16-7.2-16-16-16zm33 0c-8.8 0-16 7.1-16 16s7.2 16 16 16 16-7.1 16-16-7.2-16-16-16z"/>
    <path class="st2" d="M99.5 223.9c-8.8 0-16 7.1-16 16s7.2 16 16 16 16-7.1 16-16-7.2-16-16-16z"/>
    <path class="st3" d="M.5 223.9c-8.9 0-16 7.1-16 16s7.1 16 16 16 16-7.1 16-16-7.1-16-16-16z"/>
  </g>
  <path class="st4" d="M316.4 820.4H386v58.4h-69.6z" id="Layer_6_15_"/>
  <path class="st5" d="M350 800c-27.6 0-50 22.4-50 50s22.4 50 50 50 50-22.4 50-50-22.4-50-50-50zm-14.8 63.6c-6.8 0-12-5.6-12-12 0-6.8 5.6-12 12-12 6.8 0 12 5.6 12 12 .4 6.8-5.2 12-12 12zm32.8 0c-6.8 0-12-5.6-12-12 0-6.8 5.6-12 12-12 6.8 0 12 5.6 12 12 0 6.8-5.6 12-12 12z"/>
  <path class="st4" d="M316.4 719.6H386V778h-69.6z" id="Layer_6_14_"/>
  <path class="st5" d="M346.4 758c-.8-.4-1.6 0-2 .8s0 1.6.4 1.6c.8.4 1.6 0 2-.8.4-.4.4-1.2-.4-1.6z"/>
  <path class="st5" d="M343.6 746.8c-10.8 1.2-19.2 7.6-18.4 14.8.8 7.2 10 12 20.8 10.8s19.2-7.6 18.4-14.8c-.4-6.8-9.6-12-20.8-10.8zm9.6 16.8c-2 5.2-8.4 7.6-14 6-5.2-1.6-7.2-6.8-5.2-11.6 2-4.4 8-7.2 13.2-5.6 5.6 1.2 8.4 6.4 6 11.2z"/>
  <path class="st5" d="M342.4 760c-1.6-.8-4 0-4.8 1.6-1.2 1.6-.8 3.6 1.2 4.4 1.6.8 4 0 5.2-1.6.4-2 0-4-1.6-4.4z"/>
  <path class="st5" d="M350 700c-27.6 0-50 22.4-50 50s22.4 50 50 50 50-22.4 50-50-22.4-50-50-50zm-3.6 76.4c-13.6 0-27.2-6.4-27.2-17.2 0-5.6 3.6-12 9.6-18.4 8.4-8.4 18-12 21.6-8.4 1.6 1.6 1.6 4.4.8 7.6-.4 1.6 1.6.8 1.6.8 6.8-2.8 12.4-2.8 14.4 0 1.2 1.6 1.2 4 0 6.4-.4 1.2 0 1.6 1.2 1.6 3.6 1.2 8 4 8 8.8-.4 8.4-12.4 18.8-30 18.8zm19.6-39.6c1.6-.4 2.8 0 4 1.2s1.2 2.8.8 4l-4.8-5.2zm17.6 9.2c-.4 1.2-2 2-3.2 1.6s-2-2-1.6-3.2c1.2-4 .4-8.4-2.4-12-3.2-3.6-7.6-4.8-11.6-3.6-1.6.4-2.8-.8-2.8-2-.4-1.6.8-2.8 2-2.8 5.6-1.2 12 .8 16.4 5.2 3.6 4.8 4.8 11.2 3.2 16.8z"/>
  <path class="st4" d="M316 617.6h68.8V682H316z" id="Layer_6_9_"/>
  <path class="st5" d="M350 600c-27.6 0-50 22.4-50 50s22.4 50 50 50 50-22.4 50-50-22.4-50-50-50zm-.8 44c-3.2 7.2-5.6 13.2-8.8 20-1.6 3.6-2.8 7.2-5.6 8.8-11.6.8-2.8-12-1.2-16.4-2.8-4.8-6-10.8-9.2-16-1.6-2.4-4.8-7.2-1.6-9.6 1.2-.8 4-.8 5.6 0 4 3.2 6.4 11.6 9.6 15.2 1.2-2 2.4-4.8 3.6-8 1.2-2.8 2-6.4 3.6-7.6 2.8-2 6.8-.4 7.2 2.4 1.6 4-1.6 8.4-3.2 11.2zm26.8 17.6c-2-.4-4-3.6-6-5.2-2-2-4.4-3.6-6-5.2-1.2-1.6-.8 1.2-.8 2.8v4.8c0 1.6-1.2 2.8-2.8 2.8H358c-1.6 0-2.4-1.6-2.8-2.8v-22.4c0-4.4 8-4.4 8 0v8c1.2-.8 2-2 2.8-2.8l2-2c1.6-1.2 2.8-2.4 3.6-3.6 1.6-3.2 8-3.2 8.4.8.8 5.6-7.2 7.6-8.4 10.8 2 2.8 7.2 4.8 8.4 8 2 2.4.4 6.8-4 6z"/>
  <path class="st4" d="M319.2 515.2h62.4v64.4h-62.4z" id="Layer_6_8_"/>
  <path class="st5" d="M350 560c6.4 0 11.2-5.2 11.2-11.2 0-6.4-4.8-11.2-11.2-11.2s-11.2 5.2-11.2 11.2c0 6.4 4.8 11.2 11.2 11.2z"/>
  <path class="st5" d="M366 548.8c0 8.8-7.2 16-16 16s-16-7.2-16-16c0-1.6 0-2.8.8-4.4h-7.6V566c0 3.2 2.8 6 6 6h34c3.2 0 6-2.8 6-6v-21.6h-7.6c0 1.6.4 3.2.4 4.4z"/>
  <path class="st5" d="M350 500c-27.6 0-50 22.4-50 50s22.4 50 50 50 50-22.4 50-50-22.4-50-50-50zm27.6 66.8c0 4.8-4 8.8-8.8 8.8h-37.2c-4.8 0-8.8-4-8.8-8.8v-37.2c0-4.8 4-8.8 8.8-8.8h37.2c4.8 0 8.8 4 8.8 8.8v37.2z"/>
  <path class="st5" d="M360.8 539.2h8.4c1.2 0 2-.8 2-2v-8.4c0-1.2-.8-2-2-2h-8.4c-1.2 0-2 .8-2 2v8.4c0 1.2 1.2 2 2 2z"/>
  <path class="st4" d="M316 322.4h70.4v58.4H316z" id="Layer_6_1_"/>
  <path class="st5" d="M350 300c-27.6 0-50 22.4-50 50s22.4 50 50 50 50-22.4 50-50-22.4-50-50-50zm29.2 39.2c-.4 5.6-4.4 13.6-12 24-8 10.8-15.2 16-20.8 16-3.6 0-6.4-3.2-8.8-9.6-1.6-6-3.2-12-4.8-17.6-1.6-6.4-3.6-9.6-5.6-9.6-.4 0-2 .8-4.8 2.8l-2.8-3.6c2.8-2.8 6-5.2 8.8-8 4-3.6 6.8-5.2 8.8-5.2 4.8-.4 7.6 2.8 8.4 9.6 1.2 7.2 2 12 2.4 13.6 1.6 6 2.8 9.2 4.4 9.2 1.2 0 3.2-2 5.6-6s4-7.2 4-9.2c.4-3.6-.8-5.2-4-5.2-1.6 0-2.8.4-4.4.8 2.8-9.6 8.4-14.4 16.8-14 6 .4 9.2 4.4 8.8 12z"/>
  <path class="st4" d="M321.2 414.4h59.6V484h-59.6z" id="Layer_6_3_"/>
  <path class="st5" d="M350 400c-27.6 0-50 22.4-50 50s22.4 50 50 50 50-22.4 50-50-22.4-50-50-50zm6.8 67.6c-4.4 0-8.4-2.4-9.6-4.8 0 0-2.4 9.2-2.8 10.8-.8 2.8-2.4 6-4 8.4-1.2.8-3.6 0-4.8-1.6 0-2.8 0-6 .8-9.2s4.8-21.6 4.8-21.6-1.2-2.4-1.2-6.4c0-5.6 3.6-10 7.6-10 3.6 0 5.2 2.8 5.2 6 0 3.6-2.4 8.8-3.6 14-.8 4.4 2 7.6 6.4 7.6 7.6 0 12.4-9.6 12.4-20.8 0-8.4-5.6-15.2-16.4-15.2-12 0-19.2 8.8-19.2 18.8 0 3.6.8 5.6 2.8 7.6.8.8.8 1.2.8 2s-.8 2.4-.8 3.2c-.4.8-1.2 1.6-2 .8-5.6-2-8-8.4-8-15.2 0-11.2 9.2-24.4 28-24.4 15.2 0 24.8 10.8 24.8 22.4 0 16-8.4 27.6-21.2 27.6z"/>
  <path class="st4" d="M319.6 214.8H382v66.8h-62.4z"/>
  <path class="st5" d="M350 200c-27.6 0-50 22.4-50 50s22.4 50 50 50 50-22.4 50-50-22.4-50-50-50zm-15.2 76.4h-12v-35.6h12v35.6zm-6-40.4c-4 0-6.4-2.8-6.4-6 0-3.6 2.8-6 6.8-6s6.4 2.8 6.4 6-2.4 6-6.8 6zm48.8 40.4h-12v-19.2c0-4.8-1.6-8-6-8-3.2 0-5.2 2-6 4.4-.4.8-.4 2-.4 2.8v20h-12v-35.6h12v4.8c1.6-2.4 4.4-6 10.8-6 8 0 13.6 5.2 13.6 16v20.8z"/>
  <path class="st4" d="M319.6 114.4H382v71.2h-62.4z"/>
  <path id="facebook-circle-icon_3_" class="st5" d="M350 100c-27.6 0-50 22.4-50 50s22.4 50 50 50 50-22.4 50-50-22.4-50-50-50zm14.8 29.2h-7.2c-2.4 0-2.8.8-2.8 3.6v6h10L364 150h-9.2v32.4H342v-32h-6.8v-10.8h6.8v-8.4c0-8 4.4-12.4 14-12.4h8.8v10.4z"/>
  <path class="st4" d="M319.6 18.4H382v59.2h-62.4z"/>
  <path class="st5" d="M350 0c-27.6 0-50 22.4-50 50s22.4 50 50 50 50-22.4 50-50-22.4-50-50-50zm25.2 38v1.6c0 16-12 34.4-34.4 34.4-6.8 0-13.2-2-18.4-5.6h2.8c5.6 0 10.8-2 15.2-5.2-5.2 0-9.6-3.6-11.2-8.4h2.4c1.2 0 2 0 3.2-.4-5.6-1.2-9.6-6-9.6-12 1.6.8 3.6 1.6 5.6 1.6-3.2-2-5.2-5.6-5.2-10 0-2 .8-4.4 1.6-6 6 7.2 14.8 12 24.8 12.8 0-.8-.4-2-.4-2.8 0-6.8 5.6-12 12-12 3.6 0 6.4 1.6 8.8 3.6 2.8-.4 5.2-1.6 7.6-2.8-.8 2.8-2.8 5.2-5.2 6.8 2.4-.4 4.8-.8 6.8-2-2.4 2.8-4.4 4.8-6.4 6.4z"/>
  <path class="st4" d="M316.8 918.4h69.6v58.4h-69.6z" id="Layer_6_18_"/>
  <path class="st5" d="M350 900c-27.6 0-50 22.4-50 50s22.4 50 50 50 50-22.4 50-50-22.4-50-50-50zm.8 66c-2 2.4-4 4.4-6.4 6.4-2.8 2.4-8 2.4-10.8 0-2-1.6-4-3.6-5.6-5.6-3.2-3.6-3.2-8.4 0-12.4 1.6-2 3.6-3.6 5.6-5.2 2.8-2.4 7.6-2.4 10.8 0l-4 4s-.4.4-.8.4c-.8 0-2 .4-2.4.8l-4 4s-1.2 3.2 0 4.4c1.2 1.6 2.8 2.8 4 4s3.2 1.2 4.4 0c1.6-1.2 2.8-2.8 4-4 .8-.8.8-1.6.8-2.4v-.8c1.2-1.6 2.8-2.8 4.4-4.4 2.4 3.2 2.8 8 0 10.8zm9.2-27.6l2 2-21.6 21.6-2-2c7.2-7.6 14.4-14.4 21.6-21.6zm12 7.2c-1.6 2-3.6 3.6-5.2 5.2-2.8 2.4-7.6 2.4-10.8 0l4-4s.4-.4.8-.4c1.2 0 2-.4 2.4-.8l4-4s1.2-3.2 0-4.4l-4-4s-3.2-1.2-4.4 0l-4 4c-.8.8-1.2 1.6-1.2 2.8 0 .4 0 .4-.4.8l-3.6 3.6-.4.4c-2-2.4-2.4-6.4-.8-9.2.4-.8.8-1.2 1.2-1.6 1.6-1.6 3.2-3.6 5.2-5.2 3.6-3.2 8.4-3.2 12.4 0l4.8 4.8c3.2 3.2 3.2 8 0 12z"/>
  <path class="st4" d="M215.2 820.4h69.6v58.4h-69.6z" id="Layer_6_16_"/>
  <path d="M250 800c-27.6 0-50 22.4-50 50s22.4 50 50 50 50-22.4 50-50-22.4-50-50-50zm-16.4 63.6c-6.8 0-12-5.6-12-12s5.6-12 12-12c6.8 0 12 5.6 12 12 .4 6.8-5.2 12-12 12zm32.8 0c-6.8 0-12-5.6-12-12s5.6-12 12-12 12 5.6 12 12c0 6.8-5.6 12-12 12z"/>
  <path class="st4" d="M215.2 719.6h69.6V778h-69.6z" id="Layer_6_13_"/>
  <path d="M244.8 758c-.8-.4-1.6 0-2 .8s0 1.2.4 1.6c.8.4 1.6 0 2-.8.4-.4.4-1.2-.4-1.6zm-2.4-11.2c-10.8 1.2-18.8 8-18.4 14.8.8 7.2 10 12 20.8 10.8s18.8-8 18.4-14.8c-.8-6.8-10-12-20.8-10.8zm9.6 16.8c-2 4.8-8.4 7.6-14 6-5.2-1.6-7.6-6.8-5.2-11.6 2-4.4 8-7.2 13.2-5.6 5.2 1.2 8 6.4 6 11.2zm-11.2-3.6c-1.6-.8-3.6 0-4.8 1.6s-.8 3.6 1.2 4.4c1.6.8 4 0 5.2-1.6.4-2 0-4-1.6-4.4zm9.2-60c-27.6 0-50 22.4-50 50s22.4 50 50 50 50-22.4 50-50-22.4-50-50-50zm-5.2 76.4c-13.6 0-27.2-6.4-27.2-17.2 0-5.6 3.6-12 9.6-18.4 8.4-8.4 18-12 21.6-8.4 1.6 1.6 2 4.4.8 7.6-.4 1.6 1.6.8 1.6.8 6.4-2.8 12.4-2.8 14.4 0 1.2 1.6 1.2 4 0 6.4-.4 1.2 0 1.6 1.2 1.6 3.6 1.2 8 4 8 8.8-.4 8.4-12.4 18.8-30 18.8zm19.6-39.6c1.6-.4 2.8 0 4 1.2s1.2 2.8.8 4l-4.8-5.2zM282 746c-.4 1.2-2 2-3.2 1.6s-2-2-1.6-3.2c1.6-4 .4-8.4-2.4-12-3.2-3.2-7.6-4.8-11.6-3.6-1.6.4-2.8-.4-2.8-2-.4-1.6.4-2.8 2-2.8 5.6-1.2 12 .8 16.4 5.2 3.6 4.8 4.8 11.2 3.2 16.8z"/>
  <path class="st4" d="M214.4 617.6h68.8V682h-68.8z" id="Layer_6_10_"/>
  <path d="M250 600c-27.6 0-50 22.4-50 50s22.4 50 50 50 50-22.4 50-50-22.4-50-50-50zm-2 44c-3.2 7.2-5.6 13.2-8.8 20-1.6 3.6-2.8 7.2-5.6 8.8-11.6.8-2.8-12-1.2-16.4-2.8-4.8-6-10.8-9.2-16-1.6-2.4-4.8-7.2-1.6-9.6 1.2-.8 4-.8 5.6 0 4 3.2 6.4 11.6 9.6 15.2 1.2-2 2.4-5.2 3.6-8 1.2-2.8 2-6.4 3.6-7.6 2.8-2 6.8-.4 7.2 2.4 1.2 4-2 8.4-3.2 11.2zm26.4 17.6c-2-.4-4-3.6-6-5.2-2-2-4.4-3.6-6-5.2-1.2-1.6-.8 1.2-.8 2.8v4.8c0 1.6-1.2 2.8-2.8 2.8h-2.4c-1.6 0-2.4-1.6-2.8-2.8v-22.4c0-4.4 8-4.4 8 0v8c1.2-.8 2-2 2.8-2.8l2-2c1.6-1.2 2.8-2.4 3.6-3.6 1.6-3.2 8-3.2 8.4.8.8 5.6-7.2 7.6-8.4 10.8 2 2.8 7.2 4.8 8.8 7.6 2 2.8 0 7.2-4.4 6.4z"/>
  <path class="st4" d="M218.4 515.2h62.4v64.4h-62.4z" id="Layer_6_7_"/>
  <path d="M250 560c6 0 11.2-4.8 11.2-11.2 0-6-4.8-11.2-11.2-11.2s-11.2 5.2-11.2 11.2c0 6.4 5.2 11.2 11.2 11.2zm10.8-20.8h8.4c1.2 0 2-.8 2-2v-8.4c0-1.2-.8-2-2-2h-8.4c-1.2 0-2 .8-2 2v8.4c0 1.2 1.2 2 2 2zm5.2 9.6c0 8.8-7.2 16-16 16s-16-7.2-16-16c0-1.6 0-2.8.8-4.4h-7.6V566c0 3.2 2.8 6 6 6h34c3.2 0 6-2.8 6-6v-21.6h-7.6c0 1.6.4 2.8.4 4.4zM250 500c-27.6 0-50 22.4-50 50s22.4 50 50 50 50-22.4 50-50-22.4-50-50-50zm27.6 66.8c0 4.8-4 8.8-8.8 8.8h-37.2c-4.8 0-8.8-4-8.8-8.8v-37.2c0-4.8 4-8.8 8.8-8.8h37.2c4.8 0 8.8 4 8.8 8.8v37.2z"/>
  <path class="st4" d="M214.8 322.4h70.4v58.4h-70.4z" id="Layer_6"/>
  <path class="st6" d="M250 300c-27.6 0-50 22.4-50 50s22.4 50 50 50 50-22.4 50-50-22.4-50-50-50zm29.2 39.2c-.4 5.6-4.4 13.6-12 24-8 10.8-15.2 16-20.8 16-3.6 0-6.4-3.2-8.8-9.6-1.6-6-3.2-12-4.8-17.6-1.6-6.4-3.6-9.6-5.6-9.6-.4 0-2 .8-4.8 2.8l-2.8-3.6c2.8-2.8 6-5.2 8.8-8 4-3.6 6.8-5.2 8.8-5.2 4.8-.4 7.6 2.8 8.4 9.6 1.2 7.2 2 12 2.4 13.6 1.6 6 2.8 9.2 4.4 9.2 1.2 0 3.2-2 5.6-6s4-7.2 4-9.2c.4-3.6-.8-5.2-4-5.2-1.6 0-2.8.4-4.4.8 2.8-9.6 8.4-14.4 16.8-14 6.4.4 9.2 4.4 8.8 12z"/>
  <path class="st4" d="M219.6 414.4h59.6V484h-59.6z" id="Layer_6_4_"/>
  <path class="st6" d="M250 400c-27.6 0-50 22.4-50 50s22.4 50 50 50 50-22.4 50-50-22.4-50-50-50zm5.2 67.2c-4.4 0-8.4-2.4-9.6-4.8 0 0-2.4 9.2-2.8 10.8-.8 2.8-2.4 6-4 8.4-1.2.8-3.6 0-4.4-1.6 0-2.8 0-6 .8-9.2s4.8-21.6 4.8-21.6-1.2-2.4-1.2-6.4c0-5.6 3.6-10 7.6-10 3.6 0 5.2 2.8 5.2 6 0 3.6-2.4 8.8-3.6 14-.8 4.4 2 7.6 6.4 7.6 7.6 0 12.4-9.6 12.4-20.8 0-8.4-5.6-15.2-16.4-15.2-12 0-19.2 8.8-19.2 18.8 0 3.6.8 5.6 2.8 7.6.8.8.8 1.2.8 2s-.8 2.4-.8 3.2c-.4.8-1.2 1.6-2 .8-5.6-2-8-8.4-8-15.2 0-11.2 9.2-24.4 28-24.4 15.2 0 24.8 10.8 24.8 22.4-.4 16-8.8 27.6-21.6 27.6z"/>
  <path class="st4" d="M219.6 214.4h61.2v66.8h-61.2z" id="Layer_3_1_"/>
  <path class="st6" d="M250 200c-27.6 0-50 22.4-50 50s22.4 50 50 50 50-22.4 50-50-22.4-50-50-50zm-14.8 76.4h-12v-35.6h12v35.6zm-6-40.4c-4 0-6.8-2.8-6.4-6 0-3.6 2.8-6 6.8-6s6.4 2.8 6.4 6c-.4 3.2-2.8 6-6.8 6zm48.4 40.4h-12v-19.2c0-4.8-1.6-8-6-8-3.2 0-5.2 2-6 4.4-.4.8-.4 2-.4 2.8v20h-12v-35.6h12v4.8c1.6-2.4 4.4-5.6 10.8-5.6 8 0 13.6 5.2 13.6 16v20.4z"/>
  <path class="st4" d="M224.4 115.6h62.4v71.2h-62.4z"/>
  <path id="facebook-circle-icon_2_" d="M250 100c-27.6 0-50 22.4-50 50s22.4 50 50 50 50-22.4 50-50-22.4-50-50-50zm14.8 29.2h-7.2c-2.4 0-2.8.8-2.8 3.6v6h10L264 150h-9.2v32.4H242v-32h-6.8v-10.8h6.8v-8.4c0-8 4.4-12.4 14-12.4h8.8v10.4z"/>
  <path class="st4" d="M218.4 18.4h62.4v59.2h-62.4z"/>
  <path d="M250 0c-27.6 0-50 22.4-50 50s22.4 50 50 50 50-22.4 50-50-22.4-50-50-50zm23.6 38v1.6c0 16-12 34.4-34.4 34.4-6.8 0-13.2-2-18.4-5.6h2.8c5.6 0 10.8-2 15.2-5.2-5.2 0-9.6-3.6-11.2-8.4h2.4c1.2 0 2 0 3.2-.4-5.6-1.2-9.6-6-9.6-12 1.6.8 3.6 1.6 5.6 1.6-3.2-2-5.2-5.6-5.2-10 0-2 .8-4.4 1.6-6 6 7.2 14.8 12 24.8 12.8 0-.8-.4-2-.4-2.8 0-6.8 5.6-12 12-12 3.6 0 6.4 1.6 8.8 3.6 2.8-.4 5.2-1.6 7.6-2.8-.8 2.8-2.8 5.2-5.2 6.8 2.4-.4 4.8-.8 6.8-2-2 2.8-4.4 4.8-6.4 6.4z"/>
  <path class="st4" d="M215.2 918.4h69.6v58.4h-69.6z" id="Layer_6_19_"/>
  <path d="M250 900c-27.6 0-50 22.4-50 50s22.4 50 50 50 50-22.4 50-50-22.4-50-50-50zm.8 66c-2 2.4-4 4.4-6.4 6.4-2.8 2.4-8 2.4-10.8 0-2-1.6-4-3.6-5.6-5.6-3.2-3.6-3.2-8.4 0-12.4 1.6-2 3.6-3.6 5.6-5.2 2.8-2.4 7.6-2.4 10.8 0l-4 4s-.4.4-.8.4c-.8 0-2 .4-2.4.8l-4 4s-1.2 3.2 0 4.4c1.2 1.6 2.8 2.8 4 4s3.2 1.2 4.4 0c1.6-1.2 2.8-2.8 4-4 .8-.8.8-1.6.8-2.4v-.8c1.2-1.6 2.8-2.8 4.4-4.4 2.4 3.2 2.8 8 0 10.8zm9.2-27.6l2 2-21.6 21.6-2-2c7.2-7.6 14.4-14.4 21.6-21.6zm12 7.2c-1.6 2-3.6 3.6-5.2 5.2-2.8 2.4-7.6 2.4-10.8 0l4-4s.4-.4.8-.4c1.2 0 2-.4 2.4-.8l4-4s1.2-3.2 0-4.4l-4-4s-3.2-1.2-4.4 0l-4 4c-.8.8-1.2 1.6-1.2 2.8 0 .4 0 .4-.4.8l-3.6 3.6-.4.4c-2-2.4-2.4-6.4-.8-9.2.4-.8.8-1.2 1.2-1.6 1.6-1.6 3.2-3.6 5.2-5.2 3.6-3.2 8.4-3.2 12.4 0l4.8 4.8c3.2 3.2 3.2 8 0 12z"/>
  <path class="st4" d="M116.4 820.4H186v58.4h-69.6z" id="Layer_6_17_"/>
  <path d="M150 800c-27.6 0-50 22.4-50 50s22.4 50 50 50 50-22.4 50-50-22.4-50-50-50zm-14.8 63.6c-6.8 0-12-5.6-12-12 0-6.8 5.6-12 12-12s12 5.6 12 12c.4 6.8-5.2 12-12 12zm32.8 0c-6.8 0-12-5.6-12-12 0-6.8 5.6-12 12-12s12 5.6 12 12c0 6.8-5.6 12-12 12z"/>
  <path class="st4" d="M116.4 719.6H186V778h-69.6z" id="Layer_6_12_"/>
  <path d="M142.4 760c-1.6-.8-4 0-4.8 1.6-1.2 1.6-.8 3.6 1.2 4.4s4 0 4.8-1.6c.8-2 .4-4-1.2-4.4z"/>
  <path d="M143.6 746.8c-10.8 1.2-19.2 7.6-18.4 14.8.8 7.2 10 12 20.8 10.8 10.8-1.2 19.2-7.6 18.4-14.8-.4-6.8-9.6-12-20.8-10.8zm9.6 16.8c-2 5.2-8.4 7.6-14 6-5.2-1.6-7.2-6.8-5.2-11.6 2-4.4 8-7.2 13.2-5.6 5.6 1.2 8.4 6.4 6 11.2z"/>
  <path d="M146.4 758c-.8-.4-1.6 0-2 .8s0 1.6.4 1.6c.8.4 1.6 0 2-.8.4-.4.4-1.2-.4-1.6z"/>
  <path d="M150 700c-27.6 0-50 22.4-50 50s22.4 50 50 50 50-22.4 50-50-22.4-50-50-50zm-3.6 76.4c-13.6 0-27.2-6.4-27.2-17.2 0-5.6 3.6-12 9.6-18.4 8.4-8.4 18-12 21.6-8.4 1.6 1.6 1.6 4.4.8 7.6-.4 1.6 1.6.8 1.6.8 6.8-2.8 12.4-2.8 14.4 0 1.2 1.6 1.2 4 0 6.4-.4 1.2 0 1.6 1.2 1.6 3.6 1.2 8 4 8 8.8-.4 8.4-12.4 18.8-30 18.8zm19.6-39.6c1.6-.4 2.8 0 4 1.2s1.2 2.8.8 4l-4.8-5.2zm17.6 9.2c-.4 1.2-2 2-3.2 1.6s-2-2-1.6-3.2c1.2-4 .4-8.4-2.4-12-3.2-3.6-7.6-4.8-11.6-3.6-1.6.4-2.8-.8-2.8-2-.4-1.6.8-2.8 2-2.8 5.6-1.2 12 .8 16.4 5.2 3.6 4.8 4.8 11.2 3.2 16.8z"/>
  <path class="st4" d="M115.2 617.6H184V682h-68.8z" id="Layer_6_11_"/>
  <path d="M150 600c-27.6 0-50 22.4-50 50s22.4 50 50 50 50-22.4 50-50-22.4-50-50-50zm-.8 44c-3.2 7.2-5.6 13.2-8.8 20-1.6 3.6-2.8 7.2-5.6 8.8-11.6.8-2.8-12-1.2-16.4-2.8-4.8-6-10.8-9.2-16-1.6-2.4-4.8-7.2-1.6-9.6 1.2-.8 4-.8 5.6 0 4 3.2 6.4 11.6 9.6 15.2 1.2-2 2.4-4.8 3.6-8 1.2-2.8 2-6.4 3.6-7.6 2.8-2 6.8-.4 7.2 2.4 1.6 4-1.6 8.4-3.2 11.2zm26.8 17.6c-2-.4-4-3.6-6-5.2-2-2-4.4-3.6-6-5.2-1.2-1.6-.8 1.2-.8 2.8v4.8c0 1.6-1.2 2.8-2.8 2.8H158c-1.6 0-2.4-1.6-2.8-2.8v-22.4c0-4.4 8-4.4 8 0v8c1.2-.8 2-2 2.8-2.8l2-2c1.6-1.2 2.8-2.4 3.6-3.6 1.6-3.2 8-3.2 8.4.8.8 5.6-7.2 7.6-8.4 10.8 2 2.8 7.2 4.8 8.4 8 2 2.4.4 6.8-4 6z"/>
  <path class="st4" d="M118.8 515.2h62.4v64.4h-62.4z" id="Layer_6_6_"/>
  <path d="M162.4 539.2h8.4c1.2 0 2-.8 2-2v-8.4c0-1.2-.8-2-2-2h-8.4c-1.2 0-2 .8-2 2v8.4c0 1.2 1.2 2 2 2z"/>
  <path d="M150 500c-27.6 0-50 22.4-50 50s22.4 50 50 50 50-22.4 50-50-22.4-50-50-50zm29.2 66.8c0 4.8-4 8.8-8.8 8.8h-37.2c-4.8 0-8.8-4-8.8-8.8v-37.2c0-4.8 4-8.8 8.8-8.8h37.2c4.8 0 8.8 4 8.8 8.8v37.2z"/>
  <path d="M151.6 560c6.4 0 11.2-5.2 11.2-11.2 0-6.4-4.8-11.2-11.2-11.2s-11.2 5.2-11.2 11.2c0 6.4 4.8 11.2 11.2 11.2z"/>
  <path d="M167.6 548.8c0 8.8-7.2 16-16 16s-16-7.2-16-16c0-1.6 0-2.8.8-4.4h-7.6V566c0 3.2 2.8 6 6 6h34c3.2 0 6-2.8 6-6v-21.6h-7.6c0 1.6.4 3.2.4 4.4z"/>
  <path class="st4" d="M114 322.4h70.4v58.4H114z" id="Layer_6_2_"/>
  <path class="st6" d="M150 300c-27.6 0-50 22.4-50 50s22.4 50 50 50 50-22.4 50-50-22.4-50-50-50zm29.2 39.2c-.4 5.6-4.4 13.6-12 24-8 10.8-15.2 16-20.8 16-3.6 0-6.4-3.2-8.8-9.6-1.6-6-3.2-12-4.8-17.6-1.6-6.4-3.6-9.6-5.6-9.6-.4 0-2 .8-4.8 2.8l-2.8-3.6c2.8-2.8 6-5.2 8.8-8 4-3.6 6.8-5.2 8.8-5.2 4.8-.4 7.6 2.8 8.4 9.6 1.2 7.2 2 12 2.4 13.6 1.6 6 2.8 9.2 4.4 9.2 1.2 0 3.2-2 5.6-6s4-7.2 4-9.2c.4-3.6-.8-5.2-4-5.2-1.6 0-2.8.4-4.4.8 2.8-9.6 8.4-14.4 16.8-14 6 .4 9.2 4.4 8.8 12z"/>
  <path class="st4" d="M121.6 414.4h59.6V484h-59.6z" id="Layer_6_5_"/>
  <path class="st6" d="M150 400c-27.6 0-50 22.4-50 50s22.4 50 50 50 50-22.4 50-50-22.4-50-50-50zm6.8 67.6c-4.4 0-8.4-2.4-9.6-4.8 0 0-2.4 9.2-2.8 10.8-.8 2.8-2.4 6-4 8.4-1.2.8-3.6 0-4.8-1.6 0-2.8 0-6 .8-9.2s4.8-21.6 4.8-21.6-1.2-2.4-1.2-6.4c0-5.6 3.6-10 7.6-10 3.6 0 5.2 2.8 5.2 6 0 3.6-2.4 8.8-3.6 14-.8 4.4 2 7.6 6.4 7.6 7.6 0 12.4-9.6 12.4-20.8 0-8.4-5.6-15.2-16.4-15.2-12 0-19.2 8.8-19.2 18.8 0 3.6.8 5.6 2.8 7.6.8.8.8 1.2.8 2s-.8 2.4-.8 3.2c-.4.8-1.2 1.6-2 .8-5.6-2-8-8.4-8-15.2 0-11.2 9.2-24.4 28-24.4 15.2 0 24.8 10.8 24.8 22.4 0 16-8.4 27.6-21.2 27.6z"/>
  <path class="st4" d="M120.4 214.8h62.4v66.8h-62.4z"/>
  <path class="st6" d="M150 200c-27.6 0-50 22.4-50 50s22.4 50 50 50 50-22.4 50-50-22.4-50-50-50zm-15.2 76.4h-12v-35.6h12v35.6zm-6-40.4c-4 0-6.4-2.8-6.4-6 0-3.6 2.8-6 6.8-6s6.4 2.8 6.4 6-2.4 6-6.8 6zm48.8 40.4h-12v-19.2c0-4.8-1.6-8-6-8-3.2 0-5.2 2-6 4.4-.4.8-.4 2-.4 2.8v20h-12v-35.6h12v4.8c1.6-2.4 4.4-6 10.8-6 8 0 13.6 5.2 13.6 16v20.8z"/>
  <path class="st4" d="M120.4 114.4h62.4v71.2h-62.4z"/>
  <path id="facebook-circle-icon_1_" class="st6" d="M150 100c-27.6 0-50 22.4-50 50s22.4 50 50 50 50-22.4 50-50-22.4-50-50-50zm14.8 29.2h-7.2s-2.8.8-2.8 3.6v6h10L164 150h-9.2v32.4H142v-32h-6.8v-10.8h6.8v-8.4c0-8 4.4-12.4 14-12.4h8.8v10.4z"/>
  <path class="st4" d="M120.4 18.4h62.4v59.2h-62.4z"/>
  <path d="M150 0c-27.6 0-50 22.4-50 50s22.4 50 50 50 50-22.4 50-50-22.4-50-50-50zm25.2 38v1.6c0 16-12 34.4-34.4 34.4-6.8 0-13.2-2-18.4-5.6h2.8c5.6 0 10.8-2 15.2-5.2-5.2 0-9.6-3.6-11.2-8.4h2.4c1.2 0 2 0 3.2-.4-5.6-1.2-9.6-6-9.6-12 1.6.8 3.6 1.6 5.6 1.6-3.2-2-5.2-5.6-5.2-10 0-2 .8-4.4 1.6-6 6 7.2 14.8 12 24.8 12.8 0-.8-.4-2-.4-2.8 0-6.8 5.6-12 12-12 3.6 0 6.4 1.6 8.8 3.6 2.8-.4 5.2-1.6 7.6-2.8-.8 2.8-2.8 5.2-5.2 6.8 2.4-.4 4.8-.8 6.8-2-2.4 2.8-4.4 4.8-6.4 6.4z"/>
  <path class="st4" d="M116.8 918.4h69.6v58.4h-69.6z" id="Layer_6_20_"/>
  <path d="M150 900c-27.6 0-50 22.4-50 50s22.4 50 50 50 50-22.4 50-50-22.4-50-50-50zm1.2 66c-2 2.4-4 4.4-6.4 6.4-2.8 2.4-8 2.4-10.8 0-2-1.6-4-3.6-5.6-5.6-3.2-3.6-3.2-8.4 0-12.4 1.6-2 3.6-3.6 5.6-5.2 2.8-2.4 7.6-2.4 10.8 0l-4 4s-.4.4-.8.4c-.8 0-2 .4-2.4.8l-4 4s-1.2 3.2 0 4.4c1.2 1.6 2.8 2.8 4 4s3.2 1.2 4.4 0c1.6-1.2 2.8-2.8 4-4 .8-.8.8-1.6.8-2.4v-.8c1.2-1.6 2.8-2.8 4.4-4.4 2.4 3.2 2.4 8 0 10.8zm9.2-27.6l2 2-21.6 21.6-2-2c7.2-7.6 14.4-14.4 21.6-21.6zm11.6 7.2c-1.6 2-3.6 3.6-5.2 5.2-2.8 2.4-7.6 2.4-10.8 0l4-4s.4-.4.8-.4c1.2 0 2-.4 2.4-.8l4-4s1.2-3.2 0-4.4l-4-4s-3.2-1.2-4.4 0l-4 4c-.8.8-1.2 1.6-1.2 2.8v.8l-3.6 3.6-.4.4c-2-2.4-2.4-6.4-.8-9.2.4-.8.8-1.2 1.2-1.6 1.6-1.6 3.2-3.6 5.2-5.2 3.6-3.2 8.4-3.2 12.4 0l4.8 4.8c3.2 3.2 3.2 8-.4 12z"/>
  <path class="st4" d="M50 800c-27.6 0-50 22.4-50 50s22.4 50 50 50 50-22.4 50-50-22.4-50-50-50zm-16.4 63.6c-6.8 0-12-5.6-12-12 0-6.8 5.6-12 12-12s12 5.6 12 12c0 6.8-5.2 12-12 12zm32.4 0c-6.8 0-12-5.6-12-12 0-6.8 5.6-12 12-12s12 5.6 12 12c.4 6.8-5.2 12-12 12zM42.4 746.8c-10.8 1.2-19.2 7.6-18.4 14.8.8 7.2 10 12 20.8 10.8s19.2-7.6 18.4-14.8c-.8-6.8-10-12-20.8-10.8zm9.2 16.8c-2 5.2-8.4 7.6-14 6-5.2-1.6-7.2-6.8-5.2-11.6 2-4.4 8-7.2 13.2-5.6 5.6 1.2 8.4 6.4 6 11.2z"/>
  <path class="st4" d="M44.8 758c-.8-.4-1.6 0-2 .8s0 1.6.4 1.6c.8.4 1.6 0 2-.8.4-.4.4-1.2-.4-1.6zm-4 2c-1.6-.8-4 0-4.8 1.6-1.2 1.6-.8 3.6 1.2 4.4s4 0 4.8-1.6c.8-2 .4-4-1.2-4.4z"/>
  <path class="st4" d="M50 700c-27.6 0-50 22.4-50 50s22.4 50 50 50 50-22.4 50-50-22.4-50-50-50zm-5.2 76.4c-13.6 0-27.2-6.4-27.2-17.2 0-5.6 3.6-12 9.6-18.4 8.4-8.4 18-12 21.6-8.4 1.6 1.6 1.6 4.4.8 7.6-.4 1.6 1.6.8 1.6.8 6.8-2.8 12.4-2.8 14.4 0 1.2 1.6 1.2 4 0 6.4-.4 1.2 0 1.6 1.2 1.6 3.6 1.2 8 4 8 8.8-.4 8.4-12.4 18.8-30 18.8zm19.6-39.6c1.6-.4 2.8 0 4 1.2s1.2 2.8.8 4l-4.8-5.2zM82 746c-.4 1.2-2 2-3.2 1.6s-2-2-1.6-3.2c1.2-4 .4-8.4-2.4-12-3.2-3.6-7.6-4.8-11.6-3.6-1.6.4-2.8-.8-2.8-2-.4-1.6.8-2.8 2-2.8 5.6-1.2 12 .8 16.4 5.2 3.6 4.8 4.8 11.2 3.2 16.8zM50 600c-27.6 0-50 22.4-50 50s22.4 50 50 50 50-22.4 50-50-22.4-50-50-50zm-2.4 44c-3.2 7.2-5.6 13.2-8.8 20-1.6 3.6-2.8 7.2-5.6 8.8-11.6.8-2.8-12-1.2-16.4-2.8-4.8-6-10.8-9.2-16-1.6-2.4-4.8-7.2-1.6-9.6 1.2-.8 4-.8 5.6 0 4 3.2 6.4 11.6 9.6 15.2 1.2-2 2.4-4.8 3.6-8 1.2-2.8 2-6.4 3.6-7.6 2.8-2 6.8-.4 7.2 2.4 1.2 4-1.6 8.4-3.2 11.2zm26.8 17.6c-2-.4-4-3.6-6-5.2-2-2-4.4-3.6-6-5.2-1.2-1.6-.8 1.2-.8 2.8v4.8c0 1.6-1.2 2.8-2.8 2.8h-2.4c-1.6 0-2.4-1.6-2.8-2.8v-22.4c0-4.4 8-4.4 8 0v8c1.2-.8 2-2 2.8-2.8l2-2c1.6-1.2 2.8-2.4 3.6-3.6 1.6-3.2 8-3.2 8.4.8.8 5.6-7.2 7.6-8.4 10.8 2 2.8 7.2 4.8 8.4 8 2 2.4 0 6.8-4 6zm-8.8-112.8c0 8.8-7.2 16-16 16s-16-7.2-16-16c0-1.6 0-2.8.8-4.4h-7.6V566c0 3.2 2.8 6 6 6h34c3.2 0 6-2.8 6-6v-21.6h-7.6c.4 1.6.4 3.2.4 4.4zm-4.8-9.6h8.4c1.2 0 2-.8 2-2v-8.4c0-1.2-.8-2-2-2h-8.4c-1.2 0-2 .8-2 2v8.4c0 1.2.8 2 2 2z"/>
  <path class="st4" d="M50 560c6.4 0 11.2-5.2 11.2-11.2 0-6.4-4.8-11.2-11.2-11.2s-11.2 5.2-11.2 11.2c0 6.4 4.8 11.2 11.2 11.2z"/>
  <path class="st4" d="M50 500c-27.6 0-50 22.4-50 50s22.4 50 50 50 50-22.4 50-50-22.4-50-50-50zm27.2 66.8c0 4.8-4 8.8-8.8 8.8H31.2c-4.8 0-8.8-4-8.8-8.8v-37.2c0-4.8 4-8.8 8.8-8.8h37.2c4.8 0 8.8 4 8.8 8.8v37.2zM50 300c-27.6 0-50 22.4-50 50s22.4 50 50 50 50-22.4 50-50-22.4-50-50-50zm29.2 39.2c-.4 5.6-4.4 13.6-12 24-8 10.8-15.2 16-20.8 16-3.6 0-6.4-3.2-8.8-9.6-1.6-6-3.2-12-4.8-17.6-1.6-6.4-3.6-9.6-5.6-9.6-.4 0-2 .8-4.8 2.8l-2.8-3.6c2.8-2.8 6-5.2 8.8-8 4-3.6 6.8-5.2 8.8-5.2 4.8-.4 7.6 2.8 8.4 9.6 1.2 7.2 2 12 2.4 13.6 1.6 6 2.8 9.2 4.4 9.2 1.2 0 3.2-2 5.6-6 2.4-4 4-7.2 4-9.2.4-3.6-.8-5.2-4-5.2-1.6 0-2.8.4-4.4.8 2.8-9.6 8.4-14.4 16.8-14 6 .4 9.2 4.4 8.8 12zM50 400c-27.6 0-50 22.4-50 50s22.4 50 50 50 50-22.4 50-50-22.4-50-50-50zm5.2 67.6c-4.4 0-8.4-2.4-9.6-4.8 0 0-2.4 9.2-2.8 10.8-.8 2.8-2.4 6-4 8.4-1.2.8-3.6 0-4.8-1.6 0-2.8 0-6 .8-9.2s4.8-21.6 4.8-21.6-1.2-2.4-1.2-6.4c0-5.6 3.6-10 7.6-10 3.6 0 5.2 2.8 5.2 6 0 3.6-2.4 8.8-3.6 14-.8 4.4 2 7.6 6.4 7.6 7.6 0 12.4-9.6 12.4-20.8 0-8.4-5.6-15.2-16.4-15.2-12 0-19.2 8.8-19.2 18.8 0 3.6.8 5.6 2.8 7.6.8.8.8 1.2.8 2s-.8 2.4-.8 3.2c-.4.8-1.2 1.6-2 .8-5.6-2-8-8.4-8-15.2 0-11.2 9.2-24.4 28-24.4 15.2 0 24.8 10.8 24.8 22.4 0 16-8.4 27.6-21.2 27.6zM50 200c-27.6 0-50 22.4-50 50s22.4 50 50 50 50-22.4 50-50-22.4-50-50-50zm-14.8 76.4h-12v-35.6h12v35.6zm-6-40.4c-4 0-6.4-2.8-6.4-6 0-3.6 2.8-6 6.8-6s6.4 2.8 6.4 6c-.4 3.2-2.8 6-6.8 6zm48.4 40.4h-12v-19.2c0-4.8-1.6-8-6-8-3.2 0-5.2 2-6 4.4-.4.8-.4 2-.4 2.8v20h-12v-35.6h12v4.8c1.6-2.4 4.4-6 10.8-6 8 0 13.6 5.2 13.6 16v20.8z"/>
  <path id="facebook-circle-icon" class="st4" d="M50 100c-27.6 0-50 22.4-50 50s22.4 50 50 50 50-22.4 50-50-22.4-50-50-50zm14.8 29.2h-7.2s-2.8.8-2.8 3.6v6h10L64 150h-9.2v32.4H42v-32h-6.8v-10.8H42v-8.4c0-8 4.4-12.4 14-12.4h8.8v10.4z"/>
  <path class="st4" d="M50 0C22.4 0 0 22.4 0 50s22.4 50 50 50 50-22.4 50-50S77.6 0 50 0zm23.2 38v1.6c0 16-12 34.4-34.4 34.4-6.8 0-13.2-2-18.4-5.6h2.8c5.6 0 10.8-2 14.8-5.2-5.2 0-9.6-3.6-11.2-8.4h2.4c1.2 0 2 0 3.2-.4-5.6-1.2-9.6-6-9.6-12 1.6.8 3.6 1.6 5.6 1.6-3.2-2-5.2-5.6-5.2-10 0-2 .8-4.4 1.6-6 6 7.2 14.8 12 24.8 12.8 0-.8-.4-2-.4-2.8 0-6.8 5.6-12 12-12 3.6 0 6.4 1.6 8.8 3.6 2.8-.4 5.2-1.6 7.6-2.8-1.2 2.8-2.8 5.2-5.6 6.8 2.4-.4 4.8-.8 6.8-2-1.2 2.8-3.2 4.8-5.6 6.4zM50 900c-27.6 0-50 22.4-50 50s22.4 50 50 50 50-22.4 50-50-22.4-50-50-50zm.8 66c-2 2.4-4 4.4-6.4 6.4-2.8 2.4-8 2.4-10.8 0-2-1.6-4-3.6-5.6-5.6-3.2-3.6-3.2-8.4 0-12.4 1.6-2 3.6-3.6 5.6-5.2 2.8-2.4 7.6-2.4 10.8 0-1.6 1.2-2.8 2.8-4 4 0 0-.4.4-.8.4-.8 0-2 .4-2.4.8-1.6 1.2-2.8 2.8-4 4s-1.2 3.2 0 4.4c1.2 1.6 2.8 2.8 4 4s3.2 1.2 4.4 0c1.6-1.2 2.8-2.8 4-4 .8-.8.8-1.6.8-2.4v-.8c1.2-1.6 2.8-2.8 4.4-4.4 2.4 3.2 2.4 8 0 10.8zm8.8-27.6l2 2L40 962l-2-2 21.6-21.6zm12 7.2c-1.6 2-3.6 3.6-5.2 5.2-2.8 2.4-7.6 2.4-10.8 0l4-4s.4-.4.8-.4c1.2 0 2-.4 2.4-.8l4-4s1.2-3.2 0-4.4l-4-4c-1.2-1.2-3.2-1.2-4.4 0l-4 4c-.8.8-1.2 1.6-1.2 2.8 0 .4 0 .4-.4.8l-3.6 3.6-.4.4c-2-2.4-2.4-6.4-.8-9.2.4-.8.8-1.2 1.2-1.6 1.6-1.6 3.2-3.6 5.2-5.2 3.6-3.2 8.4-3.2 12.4 0l4.8 4.8c3.6 3.2 3.6 8 0 12z"/>
</svg>
