<?xml version="1.0" encoding="utf-8"?>
<!-- Generator: Adobe Illustrator 20.0.0, SVG Export Plug-In . SVG Version: 6.00 Build 0)  -->
<svg version="1.1" id="Layer_1" xmlns="http://www.w3.org/2000/svg" xmlns:xlink="http://www.w3.org/1999/xlink" x="0px" y="0px"
	 viewBox="0 0 249.3 91.2" style="enable-background:new 0 0 249.3 91.2;" xml:space="preserve">
<style type="text/css">
	.st0{fill:#CCCCCC;}
</style>
<g>
	<g>
		<path class="st0" d="M22.7,22.4l-4.8-11.7l-4.8,11.7 M128.3,17.8c-1,0.6-2.1,0.6-3.5,0.6h-8.5v-6.5h8.6c1.2,0,2.5,0.1,3.3,0.5
			c0.9,0.4,1.5,1.3,1.5,2.6C129.7,16.3,129.2,17.3,128.3,17.8 M188.9,22.4l-4.8-11.7l-4.8,11.7H188.9z M75.9,35.1h-7.2V12.2
			L58.5,35.1h-6.1l-10.2-23v23H28l-2.7-6.5H10.7L8,35.1H0.4L12.9,5.8h10.4l11.9,27.7V5.8h11.4l9.2,19.8l8.4-19.9h11.6L75.9,35.1
			L75.9,35.1z M104.5,35.1H81.1V5.8h23.4v6.1H88.1v5.3h16v6h-16V29h16.4V35.1z M137.4,13.7c0,4.7-3.1,7.1-4.9,7.8
			c1.5,0.6,2.8,1.6,3.5,2.5c1,1.5,1.2,2.8,1.2,5.4v5.8h-7.1v-3.7c0-1.8,0.2-4.3-1.1-5.7c-1-1-2.6-1.3-5.1-1.3h-7.5v10.7h-7V5.9h16.1
			c3.6,0,6.2,0.1,8.5,1.4C136.1,8.5,137.4,10.4,137.4,13.7 M148.6,35.1h-7.1V5.8h7.1V35.1z M231.5,35.1h-9.9l-13.3-22v22H194
			l-2.7-6.5h-14.5l-2.6,6.5H166c-3.4,0-7.7-0.8-10.2-3.2c-2.5-2.5-3.7-5.9-3.7-11.2c0-4.3,0.8-8.3,3.8-11.5
			c2.3-2.3,5.8-3.4,10.6-3.4h6.8v6.3h-6.6c-2.6,0-4,0.4-5.4,1.7c-1.2,1.2-2,3.6-2,6.6c0,3.1,0.6,5.4,1.9,6.9c1.1,1.2,3,1.5,4.9,1.5
			h3.1l9.9-23h10.5l11.9,27.7V5.8h10.7l12.3,20.4V5.8h7.2v29.3H231.5z M0.3,40.8h12l2.7-6.5h6l2.7,6.5h23.5v-5l2.1,5h12.2l2.1-5.1v5
			h58.5V30h1.1c0.8,0,1,0.1,1,1.4v9.3h30.3v-2.5c2.4,1.3,6.2,2.5,11.2,2.5h12.7l2.7-6.5h6l2.7,6.5h24.5v-6.1l3.7,6.2h19.7V0h-19.4
			v4.8L215.6,0h-20v4.8L193.1,0h-27c-4.5,0-8.5,0.6-11.7,2.4V0h-18.6v2.4c-2-1.8-4.8-2.4-7.9-2.4h-68l-4.6,10.5L50.6,0H29.2v4.8
			L26.8,0H8.5L0,19.4L0.3,40.8L0.3,40.8z"/>
		<path class="st0" d="M249.3,62.4h-12.8c-1.3,0-2.1,0-2.8,0.5c-0.7,0.5-1,1.2-1,2.1c0,1.1,0.6,1.9,1.5,2.2c0.7,0.3,1.5,0.3,2.7,0.3
			l3.8,0.1c3.8,0.1,6.4,0.8,7.9,2.4c0.3,0.2,0.5,0.5,0.7,0.7 M249.3,81.7c-1.7,2.5-5,3.7-9.5,3.7h-13.5v-6.3h13.5
			c1.3,0,2.3-0.2,2.8-0.7s0.8-1.1,0.8-1.9c0-0.9-0.3-1.5-0.9-1.9c-0.5-0.4-1.2-0.7-2.5-0.7c-6.6-0.2-14.8,0.2-14.8-9.1
			c0-4.2,2.7-8.7,10-8.7h13.9v-5.8h-13c-3.9,0-6.8,0.9-8.8,2.4v-2.4h-19.2c-3.1,0-6.7,0.8-8.4,2.4v-2.4h-34.2v2.4
			c-2.7-2-7.3-2.4-9.4-2.4h-22.6v2.4c-2.2-2.1-6.9-2.4-9.9-2.4H98.3l-5.8,6.3l-5.4-6.3H49.8v40.9h37l6-6.4l5.6,6.4h22.8v-9.6h2.2
			c3,0,6.6-0.1,9.8-1.4v11H152V80.6h0.9c1.2,0,1.3,0,1.3,1.2v9.4h57.2c3.6,0,7.4-0.9,9.5-2.6v2.6H239c3.8,0,7.5-0.5,10.3-1.9V81.7z
			 M221.4,70c1.4,1.4,2.1,3.2,2.1,6.2c0,6.3-3.9,9.2-11,9.2h-13.6v-6.3h13.6c1.3,0,2.3-0.2,2.9-0.7c0.5-0.5,0.8-1.1,0.8-1.9
			c0-0.9-0.4-1.5-0.9-1.9s-1.3-0.7-2.5-0.7c-6.5-0.2-14.7,0.2-14.7-9.1c0-4.2,2.7-8.7,10-8.7h14v6.2h-12.8c-1.3,0-2.1,0-2.8,0.5
			c-0.8,0.5-1.1,1.2-1.1,2.1c0,1.1,0.7,1.9,1.5,2.2c0.7,0.3,1.5,0.3,2.7,0.3l3.8,0.1C217.2,67.8,219.8,68.4,221.4,70 M158.2,68.2
			c-0.9,0.6-2.1,0.6-3.5,0.6h-8.5v-6.6h8.6c1.2,0,2.5,0,3.3,0.5c0.9,0.5,1.4,1.4,1.4,2.6C159.7,66.7,159.1,67.7,158.2,68.2
			 M162.5,71.9c1.6,0.6,2.8,1.6,3.4,2.5c1,1.4,1.1,2.8,1.2,5.3v5.8h-7v-3.7c0-1.8,0.2-4.4-1.1-5.7c-1-1.1-2.6-1.3-5.1-1.3h-7.5v10.7
			h-7V56.2h16.2c3.5,0,6.1,0.2,8.4,1.4c2.2,1.3,3.6,3.2,3.6,6.5C167.4,68.7,164.3,71.1,162.5,71.9 M171.3,56.2h23.4v6.1h-16.4v5.3
			h16v6h-16v5.8h16.4v6.1h-23.4V56.2z M124.1,69.7h-9v-7.5h9.1c2.5,0,4.3,1,4.3,3.6C128.4,68.4,126.8,69.7,124.1,69.7 M108.1,82.8
			L97.4,70.9l10.7-11.6V82.8z M80.3,79.4H63.1v-5.8h15.4v-6H63.1v-5.3h17.6l7.7,8.5L80.3,79.4z M136,65.8c0,8.1-6.1,9.8-12.2,9.8
			h-8.7v9.8h-13.6l-8.6-9.7l-9,9.7H56.2V56.1h28.2l8.6,9.6l8.9-9.6h22.4C129.7,56.2,136,57.7,136,65.8"/>
	</g>
</g>
</svg>
