<?xml version="1.0" encoding="utf-8"?>
<!-- Generator: Adobe Illustrator 20.0.0, SVG Export Plug-In . SVG Version: 6.00 Build 0)  -->
<svg version="1.1" id="Layer_1" xmlns="http://www.w3.org/2000/svg" xmlns:xlink="http://www.w3.org/1999/xlink" x="0px" y="0px"
	 viewBox="0 0 192.2 230.6" style="enable-background:new 0 0 192.2 230.6;" xml:space="preserve">
<style type="text/css">
	.st0{fill:#CCCCCC;}
</style>
<g>
	<polygon class="st0" points="96.1,0 37.1,102.3 12.2,102.3 51.3,34.7 59.7,49.3 63.8,42.2 51.3,20.5 0,109.4 41.2,109.4 96.1,14.2 
		116.4,49.3 120.4,42.2 	"/>
	<polygon class="st0" points="151,109.4 192.2,109.4 140.9,20.5 96.1,98.2 75.9,63.1 71.8,70.2 93.2,107.4 99,107.4 140.9,34.7 
		180,102.3 155.1,102.3 132.5,63.1 128.4,70.2 	"/>
	<polygon class="st0" points="96.1,230.6 37.1,128.3 12.2,128.3 51.3,195.9 59.7,181.3 63.8,188.4 51.3,210.1 0,121.2 41.2,121.2 
		96.1,216.4 116.4,181.3 120.4,188.4 	"/>
	<polygon class="st0" points="151,121.2 192.2,121.2 140.9,210.1 96.1,132.4 75.9,167.5 71.8,160.4 93.2,123.2 99,123.2 
		140.9,195.9 180,128.3 155.1,128.3 132.5,167.5 128.4,160.4 	"/>
</g>
</svg>
