<?xml version="1.0" encoding="utf-8"?>
<!-- Generator: Adobe Illustrator 20.0.0, SVG Export Plug-In . SVG Version: 6.00 Build 0)  -->
<svg version="1.1" id="Layer_1" xmlns="http://www.w3.org/2000/svg" xmlns:xlink="http://www.w3.org/1999/xlink" x="0px" y="0px"
	 viewBox="0 0 226 212.3" style="enable-background:new 0 0 226 212.3;" xml:space="preserve">
<style type="text/css">
	.st0{fill:#CCCCCC;}
</style>
<path class="st0" d="M119.9,0C61.3,0,13.8,47.5,13.8,106.1c0,6.3,0.6,12.5,1.7,18.6l22.2-24.9C41,57.2,76.5,23.7,120,23.6
	c1.3,0,2.5,0.1,3.8,0.2L56.3,99.7l-8.8,9.9L0,163.1h19.1h68.5h91.9c-15,15.7-36.1,25.6-59.6,25.6c-15.5,0-29.9-4.3-42.3-11.8H40.9
	c19.4,21.7,47.6,35.4,79,35.4c58.6,0,106.1-47.5,106.1-106.1S178.5,0.1,119.9,0z M202.1,99.8h-60.3l32.5-55.5
	C189.9,58.1,200.3,77.7,202.1,99.8z M198.1,132.1H69.4l81.2-102.5c2.1,0.8,4.1,1.8,6.2,2.8l-73.1,92.9h116.4
	C199.5,127.6,198.9,129.9,198.1,132.1z"/>
</svg>
