<?xml version="1.0" encoding="utf-8"?>
<!-- Generator: Adobe Illustrator 21.1.0, SVG Export Plug-In . SVG Version: 6.00 Build 0)  -->
<svg version="1.1" id="Layer_1" xmlns="http://www.w3.org/2000/svg" xmlns:xlink="http://www.w3.org/1999/xlink" x="0px" y="0px"
	 viewBox="0 0 245.8 245.7" style="enable-background:new 0 0 245.8 245.7;" xml:space="preserve">
<style type="text/css">
	.st0{fill:#CCCCCC;}
</style>
<g>
	<path class="st0" d="M198.8,120.3c26.2-11.5,43.4-28.9,44.3-48.1c0,0-6.9-5.3-29.3-13.6c-19.6-7.2-34.6-8.9-34.6-8.9l0.1,42.8
		c0,6.4-2.6,12.9-7.4,18.7c-14.8-3.6-31.2-5.6-48.4-5.6c0,0,0,0,0,0c0,0,0,0,0,0c-7.8,0-15.4,0.4-22.7,1.2c-9,0.9-17.6,2.4-25.8,4.4
		c-4.9-5.8-7.4-12.3-7.4-18.7l0.1-42.8c0,0-15,1.7-34.6,8.9C10.6,66.9,3.7,72.3,3.7,72.3c0.9,19.2,18.1,36.6,44.3,48.1
		c-26.2,11.5-43.4,28.9-44.3,48.1c0,0,6.9,5.3,29.3,13.6c19.6,7.2,34.6,8.9,34.6,8.9L67.5,148c0-6.4,2.6-12.9,7.4-18.7
		c14.8,3.6,31.2,5.6,48.4,5.6c0,0,0,0,0,0s0,0,0,0c17.2,0,33.6-2,48.5-5.6c4.9,5.8,7.4,12.3,7.4,18.7l-0.1,42.8c0,0,15-1.7,34.6-8.9
		c22.4-8.2,29.3-13.6,29.3-13.6C242.2,149.2,225.1,131.9,198.8,120.3z M123.4,130L123.4,130l-0.5,0c-15.5,0-28.2-3.8-37.5-9.6
		c9.3-5.8,22-9.6,37.5-9.6l0.5,0h0l0.5,0c15.5,0,28.2,3.8,37.5,9.6c-9.3,5.8-22,9.6-37.5,9.6L123.4,130z"/>
</g>
</svg>
