<?xml version="1.0" encoding="utf-8"?>
<!-- Generator: Adobe Illustrator 20.0.0, SVG Export Plug-In . SVG Version: 6.00 Build 0)  -->
<svg version="1.1" id="Layer_1" xmlns="http://www.w3.org/2000/svg" xmlns:xlink="http://www.w3.org/1999/xlink" x="0px" y="0px"
	 viewBox="0 0 245.8 245.7" style="enable-background:new 0 0 245.8 245.7;" xml:space="preserve">
<style type="text/css">
	.st0{fill:#FFFFFF;stroke:#CCCCCC;stroke-width:3;stroke-miterlimit:10;}
	.st1{fill:#CCCCCC;}
</style>
<path class="st0" d="M244.3,122.9c0,67-54.4,121.3-121.4,121.3S1.5,189.9,1.5,122.9S55.8,1.5,122.9,1.5
	C189.9,1.6,244.3,55.9,244.3,122.9"/>
<path class="st1" d="M122.9,232.5c60.5,0,109.6-49.1,109.6-109.6c0-21.3-6.1-41.2-16.6-58c1.8,6.6,2.8,13.5,2.8,20.6
	c0,25.6-12.6,48.1-31.7,62.3c-33.2,24.4-81.5,24.6-148.1,45.5C59,217.2,89.2,232.5,122.9,232.5"/>
<path class="st1" d="M188,34.7c-18.2-13.4-40.7-21.4-65-21.4c-60.5,0-109.6,49.1-109.6,109.6c0,20.7,5.8,40.1,15.7,56.6
	C104.5,159,165.6,108.8,188,34.7"/>
</svg>
