<?xml version="1.0" encoding="utf-8"?>
<!-- Generator: Adobe Illustrator 22.1.0, SVG Export Plug-In . SVG Version: 6.00 Build 0)  -->
<svg version="1.1" id="Layer_1" xmlns="http://www.w3.org/2000/svg" xmlns:xlink="http://www.w3.org/1999/xlink" x="0px" y="0px"
	 viewBox="0 0 245.8 245.7" style="enable-background:new 0 0 245.8 245.7;" xml:space="preserve">
<style type="text/css">
	.st0{fill:#CCCCCC;}
</style>
<g>
	<g>
		<path class="st0" d="M52.6,101.4c-0.1,0-0.2,0-0.3,0c-0.9,0.1-1.6,0.6-2,1.4L37.8,131l-12.8-28.2c-0.4-0.9-1.3-1.4-2.2-1.4l-0.1,0
			c-0.3,0-0.6,0.1-0.9,0.2c-1.2,0.5-1.8,2-1.2,3.2l15,33.2c0.4,0.9,1.3,1.4,2.2,1.4h0c1,0,1.8-0.6,2.2-1.4l14.8-33.2
			c0.4-0.8,0.3-1.7-0.3-2.4C54.1,101.7,53.4,101.4,52.6,101.4z"/>
		<path class="st0" d="M64,103.8c0-1.3-1.1-2.4-2.4-2.4c-1.3,0-2.4,1.1-2.4,2.4l0,33.2c0,1,0.6,1.9,1.5,2.2c0.3,0.1,0.6,0.2,0.9,0.2
			c0.6,0,1.3-0.3,1.7-0.7l10-10v8.3c0,1.3,1.1,2.4,2.4,2.4c1.3,0,2.4-1.1,2.4-2.4v-4.5c3.5,3.7,8.3,5.9,13.4,5.9
			c2.8,0,5.7-0.7,8.2-2c7.5-3.8,11.5-12.4,9.5-20.6l7.2-6.5l0,27.7c0,1.3,1.1,2.4,2.4,2.4c1.3,0,2.4-1.1,2.4-2.4l0-20.1l9.6-9.6
			l9.5,9.5c-1.6,8.2,2.6,16.3,10.1,19.9c2.5,1.2,5.1,1.8,7.8,1.8c5.1,0,10-2.1,13.4-5.9v4.5c0,1,0.6,1.9,1.6,2.3
			c0.3,0.1,0.5,0.1,0.8,0.1c0.7,0,1.4-0.3,1.8-0.9l7.8-9.2v7.7c0,1.3,1.1,2.4,2.4,2.4c1.3,0,2.4-1.1,2.4-2.4l0-13.4l11.1-13.2
			l0,26.5c0,1.3,1.1,2.4,2.4,2.4c1.3,0,2.4-1.1,2.4-2.4v-13.2l11.3-13.3l0,26.5c0,1,0.6,1.9,1.5,2.2c0.3,0.1,0.6,0.2,0.9,0.2
			c0.6,0,1.3-0.3,1.7-0.7l7.6-7.6c0.5-0.5,0.7-1.1,0.7-1.7c0-0.6-0.3-1.3-0.7-1.7c-0.5-0.5-1.1-0.7-1.7-0.7c-0.6,0-1.3,0.3-1.7,0.7
			l-3.5,3.5l0-27.3c0-1-0.6-1.9-1.6-2.3c-0.3-0.1-0.5-0.1-0.8-0.1c-0.7,0-1.4,0.3-1.8,0.9l-11.8,14v-12.4c0-1-0.6-1.9-1.6-2.3
			c-0.3-0.1-0.5-0.1-0.8-0.1c-0.7,0-1.4,0.3-1.8,0.9l-11.7,13.8v-12.3c0-1.3-1.1-2.4-2.4-2.4c-1.3,0-2.4,1.1-2.4,2.4v18l-7.2,8.5
			l0-26.5c0-1.3-1.1-2.4-2.4-2.4c-1.3,0-2.4,1.1-2.4,2.4v4c-3.4-3.7-8.3-5.9-13.4-5.9c-0.7,0-1.4,0-2.1,0.1
			c-6,0.7-11.2,4.3-14.1,9.6l-9.6-9.5c-0.5-0.5-1.1-0.7-1.7-0.7c-0.6,0-1.3,0.3-1.7,0.7l-7.9,7.9v-6.2c0-1-0.6-1.8-1.4-2.2
			c-0.3-0.1-0.6-0.2-1-0.2c-0.6,0-1.2,0.2-1.6,0.6l-9.9,9c-3-5.1-8.2-8.5-14.1-9c-0.6-0.1-1.1-0.1-1.7-0.1c-5.1,0-10,2.1-13.4,5.9
			V91.1c0-1.3-1.1-2.4-2.4-2.4c-1.3,0-2.4,1.1-2.4,2.4l0,30.7l-9.3,9.3V103.8z M158.4,106.7c7.4,0,13.4,6,13.4,13.4
			c0,7.4-6,13.4-13.4,13.4c-7.4,0-13.4-6-13.4-13.4C144.9,112.7,151,106.7,158.4,106.7z M91.6,106.7c7.4,0,13.4,6,13.4,13.4
			c0,7.4-6,13.4-13.4,13.4c-7.4,0-13.4-6-13.4-13.4C78.2,112.7,84.2,106.7,91.6,106.7z"/>
		<path class="st0" d="M84.7,129.7C84.8,129.7,84.8,129.8,84.7,129.7c0.2,0.2,0.4,0.3,0.6,0.4c0.1,0,0.1,0.1,0.2,0.1
			c0.2,0.1,0.5,0.3,0.7,0.4c0,0,0,0,0,0c0.3,0.1,0.5,0.3,0.8,0.4c0,0,0,0,0,0c0.3,0.1,0.5,0.2,0.8,0.3c0,0,0,0,0.1,0
			c0.3,0.1,0.5,0.2,0.8,0.2c0,0,0.1,0,0.1,0c0.3,0.1,0.5,0.1,0.8,0.2c0,0,0,0,0.1,0c0.3,0,0.5,0.1,0.8,0.1c0.1,0,0.1,0,0.2,0
			c0.3,0,0.6,0,0.8,0c0.6,0,1.2,0,1.8-0.1c0.6-0.1,1.2-0.2,1.7-0.4c0.6-0.2,1.1-0.4,1.6-0.6c0.2-0.1,0.3-0.2,0.5-0.3
			c0.5-0.3,1-0.6,1.4-0.9c0.3-0.2,0.6-0.5,0.9-0.7s0.5-0.5,0.8-0.8c0.4-0.5,0.9-1,1.2-1.6c0.4-0.6,0.7-1.2,0.9-1.8
			c0.4-1.1,0.7-2.2,0.9-3.4c0-0.4,0.1-0.8,0.1-1.2c0-0.3,0-0.6,0-0.8c0-0.1,0-0.1,0-0.2c0-0.3-0.1-0.5-0.1-0.8c0,0,0,0,0-0.1
			c0-0.3-0.1-0.5-0.2-0.8c0,0,0-0.1,0-0.1c-0.1-0.3-0.1-0.5-0.2-0.8c0,0,0,0,0-0.1c-0.1-0.3-0.2-0.5-0.3-0.8c0,0,0,0,0,0
			c-0.1-0.3-0.2-0.5-0.4-0.8c0,0,0,0,0,0c-0.3-0.5-0.6-1-0.9-1.5l0,0c-1-0.7-2-1.2-3.2-1.6c-1.2-0.4-2.4-0.6-3.7-0.6
			c-3.3,0-6.2,1.3-8.4,3.5c-2.1,2.1-3.5,5.1-3.5,8.3c0,1.3,0.2,2.5,0.6,3.6C83.5,127.7,84.1,128.8,84.7,129.7z"/>
		<path class="st0" d="M13.8,100.7l0,44.1L67.6,182h112.7l55.4-38.4l0-44.7l-53-36.8h-113L13.8,100.7z M57.7,90.3
			c0.1-0.3,0.1-0.5,0.2-0.7c0.1-0.2,0.2-0.5,0.4-0.7c0.1-0.2,0.3-0.4,0.5-0.6c0.1-0.1,0.3-0.3,0.5-0.4c0.1-0.1,0.2-0.2,0.3-0.2
			c0.3-0.2,0.5-0.3,0.8-0.4c0.4-0.1,0.8-0.2,1.2-0.2c0,0,0,0,0,0c0.1,0,0.3,0,0.4,0c0,0,0.1,0,0.1,0c0.1,0,0.2,0,0.3,0
			c0,0,0.1,0,0.1,0c0.1,0,0.2,0,0.3,0.1c0,0,0,0,0,0c0.1,0,0.2,0.1,0.3,0.1l0,0c0,0,0,0,0,0c0.5,0.2,0.9,0.5,1.2,0.8c0,0,0,0,0,0
			l0,0c0,0,2.8,2.7,2.8,2.8c0.4,0.4,0.7,0.8,0.9,1.3c0.2,0.5,0.3,1,0.3,1.6c0,1.1-0.4,2.1-1.2,2.8c-0.7,0.7-1.7,1.2-2.8,1.2
			c-0.6,0-1.1-0.1-1.6-0.3c-0.5-0.2-0.9-0.5-1.3-0.9c0,0-2.7-2.7-2.8-2.8l0,0c0,0,0,0,0,0c-0.3-0.3-0.6-0.8-0.8-1.2c0,0,0,0,0,0l0,0
			c0-0.1-0.1-0.2-0.1-0.3c0,0,0,0,0,0c0-0.1-0.1-0.2-0.1-0.3c0,0,0,0,0-0.1c0-0.1,0-0.2,0-0.3c0,0,0-0.1,0-0.1c0-0.1,0-0.3,0-0.4
			C57.6,90.8,57.6,90.5,57.7,90.3z M71.7,106.1l0-15c0-0.3,0-0.5,0.1-0.8c0.1-0.3,0.1-0.5,0.2-0.8c0.1-0.2,0.2-0.5,0.4-0.7
			c0.1-0.2,0.3-0.4,0.5-0.6c0.1-0.1,0.2-0.2,0.3-0.3c0.1-0.1,0.2-0.2,0.3-0.2c0.2-0.1,0.3-0.2,0.5-0.3c0.2-0.1,0.4-0.2,0.5-0.2
			c0.4-0.1,0.8-0.2,1.2-0.2c0.1,0,0.3,0,0.4,0c0,0,0.1,0,0.1,0c0.1,0,0.2,0,0.3,0c0,0,0,0,0.1,0c0.1,0,0.2,0.1,0.3,0.1c0,0,0,0,0,0
			c0.1,0,0.2,0.1,0.3,0.1l0,0c0,0,0,0,0,0c0.5,0.2,0.9,0.5,1.3,0.9v0c0,0,2.8,2.7,2.8,2.8c0.4,0.4,0.7,0.8,0.9,1.3
			c0.2,0.5,0.3,1,0.3,1.6v4.3l0,4.3c0.9-0.5,1.8-0.8,2.8-1.2c0,0,0.1,0,0.1,0c0.2-0.1,0.4-0.1,0.6-0.2c0,0,0.1,0,0.1,0
			c0.6-0.2,1.3-0.3,1.9-0.4c0.1,0,0.1,0,0.2,0c0,0,0.1,0,0.1,0c0.2,0,0.3,0,0.5-0.1c0.1,0,0.3,0,0.4,0c0.2,0,0.3,0,0.5,0
			c0.2,0,0.3,0,0.5,0c0.1,0,0.3,0,0.4,0c0.3,0,0.5,0,0.8,0c0.1,0,0.2,0,0.3,0c0.2,0,0.4,0,0.6,0c0.1,0,0.2,0,0.3,0
			c0.2,0,0.4,0,0.6,0c0.1,0,0.2,0,0.3,0c0.3,0,0.6,0.1,0.9,0.1l0,0l0,0c0.3,0,0.6,0.1,0.9,0.2c0.1,0,0.2,0,0.3,0.1
			c0.2,0,0.4,0.1,0.6,0.1c0.1,0,0.2,0.1,0.3,0.1c0.2,0.1,0.4,0.1,0.6,0.2c0.1,0,0.2,0.1,0.3,0.1c0.2,0.1,0.4,0.1,0.7,0.2
			c0.1,0,0.1,0,0.2,0.1c0.3,0.1,0.6,0.2,0.8,0.3c0.1,0,0.2,0.1,0.2,0.1c0.2,0.1,0.4,0.2,0.6,0.3c0.1,0,0.2,0.1,0.3,0.1
			c0.1,0,0.2,0.1,0.3,0.1c0.1,0,0.2,0.1,0.2,0.1c0.1,0.1,0.2,0.1,0.3,0.2c0.2,0.1,0.4,0.2,0.5,0.3c0.1,0,0.2,0.1,0.3,0.1
			c0.2,0.2,0.5,0.3,0.7,0.5c0.1,0,0.1,0.1,0.2,0.1c0.2,0.1,0.4,0.3,0.6,0.4c0.1,0.1,0.2,0.1,0.3,0.2c0.1,0.1,0.3,0.2,0.4,0.4
			c0.1,0.1,0.2,0.2,0.3,0.2c0.1,0.1,0.3,0.2,0.4,0.4c0.1,0.1,0.2,0.1,0.2,0.2c0.2,0.2,0.4,0.3,0.5,0.5c0,0,0.1,0.1,0.1,0.1v0
			c0,0,2.1,2.1,2.1,2.1l4.2-3.8l4.2-3.8l0,0c0.1-0.1,0.3-0.3,0.5-0.4l0,0c0.2-0.1,0.3-0.2,0.5-0.3l0,0c0.2-0.1,0.3-0.1,0.5-0.2
			c0,0,0.1,0,0.1,0c0.2,0,0.3-0.1,0.5-0.1c0,0,0,0,0,0c0.1,0,0.2,0,0.3,0c0.1,0,0.2,0,0.3,0c0.6,0,1.1,0.1,1.7,0.3l0,0
			c0.1,0,0.2,0.1,0.3,0.2c0,0,0.1,0,0.1,0c0.1,0,0.2,0.1,0.2,0.1c0,0,0,0,0,0c0,0,0,0,0,0c0.1,0.1,0.2,0.1,0.3,0.2l0,0
			c0.1,0.1,0.2,0.2,0.3,0.3v0c0,0,3.1,3.1,3.1,3.2l3.2-3.2c0.8-0.7,1.8-1.2,2.8-1.2c1.1,0,2.1,0.4,2.8,1.2l8.1,8.1
			c0.6-0.8,1.2-1.6,1.9-2.4c0.2-0.2,0.5-0.5,0.7-0.7c0.2-0.2,0.4-0.3,0.5-0.5c0.4-0.3,0.8-0.7,1.1-1c0.2-0.2,0.4-0.3,0.6-0.4
			c0.3-0.2,0.5-0.4,0.8-0.6c0.3-0.2,0.6-0.4,0.9-0.5c0.4-0.2,0.9-0.5,1.3-0.7c0.5-0.2,0.9-0.4,1.4-0.6c0.3-0.1,0.6-0.2,0.9-0.3
			c1-0.3,1.9-0.6,2.9-0.7c0.4-0.1,0.7-0.1,1.1-0.2c0.6-0.1,1.3-0.1,1.9-0.1c0.7,0,1.3,0,2,0.1c0.7,0.1,1.3,0.1,2,0.3
			c0.3,0.1,0.6,0.1,0.8,0.2c0,0,0.1,0,0.1,0c0.1,0,0.1,0,0.2,0.1c0.1,0,0.3,0.1,0.4,0.1c0.1,0,0.2,0.1,0.4,0.1
			c0.2,0.1,0.5,0.1,0.7,0.2c0.7,0.2,1.4,0.5,2.1,0.8c1.2,0.6,2.4,1.3,3.5,2.1V104v-0.2c0-0.7,0.2-1.3,0.5-1.9
			c0.1-0.1,0.1-0.2,0.2-0.3c0.1-0.2,0.3-0.4,0.5-0.6c0.3-0.3,0.6-0.5,0.9-0.7c0.3-0.2,0.7-0.3,1.1-0.4c0.3-0.1,0.5-0.1,0.8-0.1h0
			c0.1,0,0.3,0,0.4,0c0,0,0.1,0,0.1,0c0.1,0,0.2,0,0.3,0c0,0,0.1,0,0.1,0c0.1,0,0.2,0,0.3,0.1c0,0,0,0,0,0c0.1,0,0.2,0.1,0.3,0.1
			l0,0c0,0,0,0,0,0c0.1,0,0.2,0.1,0.3,0.2l0,0c0.3,0.2,0.6,0.4,0.9,0.7c0,0,0,0,0.1,0l0,0c0,0,2.8,2.7,2.8,2.8
			c0.4,0.4,0.7,0.8,0.9,1.3c0.2,0.5,0.3,1,0.3,1.6v8l0,8l0.6-0.7l0.6-0.7v-8.7v-8.7v0c0-0.4,0.1-0.8,0.2-1.2c0-0.1,0.1-0.2,0.1-0.4
			c0.1-0.1,0.1-0.2,0.2-0.3c0.2-0.3,0.4-0.6,0.7-0.9c0.1-0.1,0.2-0.2,0.3-0.3c0.2-0.1,0.3-0.2,0.5-0.4c0.2-0.1,0.5-0.3,0.7-0.3
			c0.1,0,0.1,0,0.2-0.1c0.3-0.1,0.7-0.2,1.1-0.2c0.1,0,0.3,0,0.4,0c0,0,0.1,0,0.1,0c0.1,0,0.2,0,0.3,0c0,0,0,0,0.1,0
			c0.1,0,0.2,0.1,0.3,0.1c0,0,0,0,0,0c0.1,0,0.2,0.1,0.3,0.1l0,0c0,0,0,0,0,0c0.5,0.2,0.9,0.5,1.2,0.8c0,0,0,0,0,0l0,0
			c0,0,2.8,2.7,2.8,2.8c0.4,0.4,0.7,0.8,0.9,1.3c0.2,0.5,0.3,1,0.3,1.6v1.8l6.1-7.2c0.1-0.1,0.1-0.2,0.2-0.2
			c0.2-0.2,0.4-0.4,0.6-0.5c0.1-0.1,0.2-0.1,0.3-0.2c0.2-0.1,0.3-0.1,0.5-0.2c0.1,0,0.2-0.1,0.4-0.1c0.1,0,0.2,0,0.3-0.1
			c0.1,0,0.2,0,0.3,0c0.2,0,0.4,0,0.6,0c0.3,0,0.6,0.1,0.9,0.1c0.1,0,0.2,0.1,0.3,0.1c0.1,0,0.3,0.1,0.4,0.2c0,0,0.1,0,0.1,0
			c0.1,0.1,0.2,0.1,0.4,0.2l0,0l0,0c0.1,0.1,0.2,0.2,0.3,0.2c0,0,0,0,0.1,0.1c0.1,0.1,0.2,0.2,0.3,0.3l0,0c0,0,2.8,2.7,2.8,2.8
			c0.4,0.4,0.6,0.8,0.8,1.3c0.2,0.5,0.3,1,0.3,1.5v1.9l2.9-3.4l3.3-3.9c0.5-0.6,1.1-1,1.7-1.2c0.1,0,0.2-0.1,0.3-0.1
			c0.3-0.1,0.6-0.1,0.9-0.1c0.2,0,0.4,0,0.6,0c0.2,0,0.4,0.1,0.6,0.1c0.1,0,0.2,0.1,0.3,0.1c0.1,0,0.3,0.1,0.4,0.2c0,0,0.1,0,0.1,0
			c0.1,0.1,0.2,0.1,0.4,0.2l0,0c0.1,0.1,0.2,0.2,0.3,0.2c0,0,0,0,0.1,0.1c0.1,0.1,0.2,0.2,0.3,0.3v0c0,0,2.8,2.7,2.8,2.8
			c0.4,0.4,0.6,0.8,0.8,1.3c0.2,0.5,0.3,1,0.3,1.5l0,18.8c0.1,0,0.3,0,0.4-0.1c0,0,0.1,0,0.1,0c0.1,0,0.2,0,0.3,0c0.1,0,0.1,0,0.2,0
			c0.1,0,0.2,0,0.3,0c0,0,0.1,0,0.1,0c0.1,0,0.3,0.1,0.4,0.1c0.1,0,0.3,0.1,0.4,0.2c0,0,0.1,0,0.1,0.1c0.1,0,0.2,0.1,0.3,0.1
			c0,0,0.1,0.1,0.1,0.1c0.1,0.1,0.2,0.1,0.3,0.2c0,0,0.1,0.1,0.1,0.1c0.1,0.1,0.2,0.2,0.4,0.3c0,0,2.8,2.8,2.8,2.8
			c0.8,0.8,1.2,1.8,1.2,2.8c0,1-0.4,2-1.2,2.8l-7.6,7.6c-0.6,0.6-1.3,0.9-2,1.1c-0.8,0.2-1.6,0.1-2.3-0.2c-0.2-0.1-0.5-0.2-0.7-0.4
			c-0.2-0.1-0.4-0.3-0.6-0.5c0,0-2.8-2.7-2.8-2.8l0,0c-0.1-0.1-0.2-0.2-0.3-0.3c0,0,0,0-0.1-0.1c-0.1-0.1-0.1-0.2-0.2-0.2
			c0,0,0,0,0-0.1c-0.1-0.1-0.1-0.2-0.2-0.3c0,0,0,0,0,0c-0.1-0.1-0.1-0.2-0.1-0.3c0,0,0,0,0,0c0,0,0,0,0,0c0-0.1-0.1-0.2-0.1-0.3
			c0,0,0,0,0-0.1c0-0.1-0.1-0.2-0.1-0.4c0,0,0-0.1,0-0.1c0-0.1,0-0.2,0-0.3c0,0,0-0.1,0-0.1c0-0.1,0-0.2,0-0.4v0v-16.1l-5.3,6.2
			l0,12.7c0,1.1-0.5,2.1-1.2,2.8c-0.7,0.7-1.7,1.2-2.8,1.2c-0.6,0-1.1-0.1-1.6-0.3c-0.5-0.2-0.9-0.5-1.3-0.9c0,0-2.8-2.7-2.8-2.8
			l0,0c-0.3-0.3-0.5-0.6-0.7-0.9l0,0c-0.1-0.1-0.1-0.2-0.2-0.3c0,0,0,0,0,0l0,0c0-0.1-0.1-0.2-0.1-0.3c0,0,0,0,0-0.1
			c0-0.1-0.1-0.2-0.1-0.3c0,0,0-0.1,0-0.1c0-0.1,0-0.2,0-0.3c0,0,0-0.1,0-0.1c0-0.1,0-0.3,0-0.4c0,0,0,0,0,0v-16.1l-5.1,6.1v12.8
			c0,0.7-0.2,1.4-0.5,2c-0.3,0.6-0.8,1.1-1.5,1.5c-0.6,0.4-1.3,0.5-2,0.5c-0.7,0-1.4-0.2-2-0.5c-0.2-0.1-0.3-0.2-0.5-0.3
			c-0.1-0.1-0.3-0.2-0.4-0.4c0,0-2.7-2.7-2.8-2.8v0c-0.1-0.1-0.2-0.2-0.3-0.3c0,0,0,0,0,0l0,0c-0.1-0.1-0.2-0.3-0.3-0.4l-1.4,1.6
			l-1.4,1.6c-0.5,0.6-1.3,1.1-2,1.3c-0.8,0.2-1.6,0.2-2.4-0.1c-0.3-0.1-0.6-0.3-0.8-0.4c-0.3-0.2-0.5-0.4-0.7-0.6
			c0,0-2.6-2.6-2.6-2.6c-3.1,1.9-6.6,2.9-10.2,2.9c-3.5,0-7.1-0.9-10.3-2.8c-0.8-0.5-1.5-0.9-2.1-1.5c-0.7-0.5-1.3-1.1-1.9-1.7
			c0,0-2.8-2.7-2.8-2.8l0,0c-0.2-0.3-0.5-0.5-0.7-0.8c0,0-0.1-0.1-0.1-0.1c-0.5-0.5-0.9-1.1-1.3-1.7c0,0-0.1-0.1-0.1-0.1
			c-0.2-0.3-0.4-0.6-0.6-0.9c0,0,0,0,0-0.1c-0.2-0.3-0.3-0.6-0.5-0.9c0,0,0-0.1-0.1-0.1c-0.2-0.3-0.3-0.6-0.5-0.9c0,0,0-0.1-0.1-0.1
			c-0.1-0.3-0.3-0.6-0.4-0.9c0,0,0,0,0-0.1c-0.1-0.3-0.2-0.6-0.3-1c0,0,0-0.1,0-0.1c0,0,0-0.1,0-0.1c-0.2-0.6-0.4-1.3-0.5-2
			c0-0.1,0-0.1,0-0.2c-0.1-0.3-0.1-0.7-0.2-1c0,0,0-0.1,0-0.1c0-0.3-0.1-0.6-0.1-0.9c0-0.1,0-0.1,0-0.2c0-0.3,0-0.7-0.1-1
			c0-0.1,0-0.1,0-0.2c0-0.3,0-0.6,0-0.9c0,0,0-0.1,0-0.1c0-0.3,0-0.7,0.1-1c0-0.1,0-0.2,0-0.2c0-0.3,0.1-0.7,0.1-1l0,0v0l-5-5l-8,8
			v9.7v9.7c0,1.1-0.4,2.1-1.2,2.8c-0.7,0.7-1.7,1.2-2.8,1.2c-0.6,0-1.1-0.1-1.6-0.3c-0.5-0.2-0.9-0.5-1.3-0.9c0,0-2.8-2.7-2.8-2.8v0
			c-0.3-0.3-0.5-0.6-0.7-0.9c0,0,0,0,0,0c-0.1-0.1-0.1-0.2-0.2-0.3c0,0,0,0,0,0l0,0c0-0.1-0.1-0.2-0.1-0.3c0,0,0,0,0,0
			c0-0.1-0.1-0.2-0.1-0.3c0,0,0,0,0-0.1c0-0.1,0-0.2,0-0.3c0,0,0-0.1,0-0.1c0-0.1,0-0.3,0-0.4v-9.4l0-9.4l-1,0.9
			c0.8,4,0.3,8.1-1.3,11.6c-1.6,3.6-4.2,6.7-7.6,8.9c-3.5,2.2-7.4,3.2-11.3,3c-3.9-0.1-7.8-1.5-11.1-3.9v0.5v0.5
			c0,1.1-0.5,2.1-1.2,2.8c-0.7,0.7-1.7,1.2-2.8,1.2c-0.6,0-1.1-0.1-1.6-0.3c-0.5-0.2-0.9-0.5-1.3-0.9c0,0-2.7-2.7-2.8-2.8l0,0
			c-0.1-0.1-0.2-0.2-0.3-0.4c0,0,0,0,0,0c-0.1-0.1-0.2-0.3-0.3-0.4c0,0,0,0,0,0c0,0,0,0,0,0c-0.2-0.3-0.3-0.6-0.4-1v0l-2.3,2.3
			l-2.3,2.3c-0.6,0.6-1.3,0.9-2,1.1c-0.8,0.2-1.6,0.1-2.3-0.2c-0.2-0.1-0.5-0.2-0.7-0.4c-0.2-0.1-0.4-0.3-0.6-0.5
			c0,0-2.8-2.7-2.8-2.8c-0.1-0.1-0.2-0.2-0.3-0.3c0,0,0,0-0.1-0.1c-0.1-0.1-0.1-0.2-0.2-0.2c0,0,0,0,0-0.1c-0.1-0.1-0.1-0.2-0.2-0.3
			c0,0,0,0,0,0c-0.1-0.1-0.1-0.2-0.1-0.3c0,0,0,0,0,0c0,0,0,0,0,0c0-0.1-0.1-0.2-0.1-0.3c0,0,0,0,0-0.1c0-0.1-0.1-0.2-0.1-0.4
			c0,0,0-0.1,0-0.1c0-0.1,0-0.2,0-0.3c0,0,0-0.1,0-0.1c0-0.1,0-0.2,0-0.4l0,0l0-25.3l-13.3,29.7c-0.3,0.7-0.8,1.3-1.5,1.7
			c-0.6,0.4-1.4,0.6-2.2,0.6c-0.5,0-1.1-0.1-1.6-0.3c-0.5-0.2-0.9-0.5-1.3-0.9c0,0-2.8-2.7-2.8-2.8v0c-0.1-0.1-0.2-0.2-0.2-0.3
			c0,0,0,0,0,0c-0.1-0.1-0.1-0.2-0.2-0.3c0,0,0,0,0,0c0,0,0,0,0,0c0-0.1-0.1-0.1-0.1-0.2c0,0,0-0.1,0-0.1c-0.1-0.1-0.1-0.2-0.2-0.3
			l-15-33.1c-0.3-0.8-0.4-1.6-0.3-2.3c0-0.3,0.1-0.5,0.2-0.7c0.1-0.4,0.3-0.7,0.6-1c0.1-0.1,0.2-0.3,0.3-0.4
			c0.1-0.1,0.2-0.2,0.4-0.3c0.3-0.2,0.5-0.4,0.9-0.5c0.3-0.1,0.5-0.2,0.8-0.3c0.1,0,0.3-0.1,0.4-0.1c0.1,0,0.3,0,0.4,0h0
			c0.1,0,0.2,0,0.4,0c0,0,0.1,0,0.1,0c0.1,0,0.2,0,0.3,0c0,0,0,0,0.1,0c0.1,0,0.2,0.1,0.4,0.1c0,0,0,0,0.1,0c0.1,0,0.2,0.1,0.3,0.1
			c0,0,0,0,0,0c0,0,0,0,0,0c0.2,0.1,0.5,0.2,0.7,0.4c0,0,0,0,0,0c0.1,0.1,0.2,0.1,0.3,0.2c0,0,0,0,0,0c0.1,0.1,0.2,0.2,0.3,0.3l0,0
			c0,0,2.8,2.7,2.8,2.8c0.2,0.2,0.3,0.4,0.5,0.6c0.1,0.2,0.3,0.4,0.4,0.7l9.3,20.5L49,102.2c0.1-0.2,0.2-0.3,0.2-0.5
			c0.1-0.1,0.2-0.3,0.3-0.4c0.1-0.1,0.2-0.3,0.4-0.4c0.1-0.1,0.2-0.2,0.4-0.3c0,0,0,0,0,0c0,0,0,0,0.1,0c0.1-0.1,0.2-0.1,0.3-0.2
			c0,0,0.1,0,0.1-0.1c0.1-0.1,0.3-0.1,0.4-0.2c0.2-0.1,0.3-0.1,0.5-0.2c0.2,0,0.3-0.1,0.5-0.1l0,0c0.2,0,0.3,0,0.5,0
			c0.1,0,0.1,0,0.2,0c0.1,0,0.2,0,0.3,0c0.1,0,0.1,0,0.2,0c0.1,0,0.2,0,0.3,0.1c0.1,0,0.1,0,0.2,0.1c0,0,0.1,0,0.1,0
			c0,0,0.1,0,0.1,0.1c0.1,0,0.1,0.1,0.2,0.1c0.1,0,0.2,0.1,0.2,0.1c0.1,0,0.1,0.1,0.2,0.1c0.1,0,0.1,0.1,0.2,0.1
			c0.1,0,0.1,0.1,0.2,0.1c0.1,0.1,0.1,0.1,0.2,0.2c0.1,0.1,0.1,0.1,0.2,0.2v0c0,0,2.1,2.1,2.1,2.1v0c0-0.1,0-0.2,0.1-0.3
			c0,0,0,0,0,0c0-0.1,0.1-0.2,0.1-0.4c0.2-0.6,0.6-1.2,1.1-1.6c0,0,0,0,0,0c0,0,0,0,0,0c0.1-0.1,0.1-0.1,0.2-0.2
			c0,0,0.1-0.1,0.1-0.1c0.1,0,0.1-0.1,0.2-0.1c0,0,0.1-0.1,0.1-0.1c0.1,0,0.1-0.1,0.2-0.1c0.1,0,0.1-0.1,0.2-0.1
			c0.1,0,0.1,0,0.2-0.1c0.1,0,0.1,0,0.2-0.1c0.1,0,0.1,0,0.2-0.1c0.1,0,0.1,0,0.2-0.1c0.1,0,0.1,0,0.2,0c0.1,0,0.2,0,0.2,0
			c0,0,0.1,0,0.1,0c0.1,0,0.3,0,0.4,0c0.1,0,0.3,0,0.4,0c0,0,0.1,0,0.1,0c0.1,0,0.2,0,0.3,0c0,0,0.1,0,0.1,0c0.1,0,0.2,0,0.3,0.1
			c0,0,0,0,0,0c0.1,0,0.2,0.1,0.3,0.1l0,0c0,0,0,0,0,0c0.1,0,0.2,0.1,0.3,0.2l0,0c0.3,0.2,0.7,0.4,0.9,0.7c0,0,2.8,2.7,2.8,2.8
			c0.4,0.4,0.7,0.8,0.9,1.3c0.2,0.5,0.3,1,0.3,1.6v17.9l1-1l2.3-2.3V106.1z"/>
		<path class="st0" d="M61.6,93.5c1.3,0,2.4-1.1,2.4-2.4c0-1.3-1.1-2.4-2.4-2.4c-1.3,0-2.4,1.1-2.4,2.4
			C59.2,92.4,60.3,93.5,61.6,93.5z"/>
		<path class="st0" d="M151.5,129.7L151.5,129.7c0.5,0.3,1,0.6,1.5,0.9c0,0,0,0,0,0c0.3,0.1,0.5,0.3,0.8,0.4c0,0,0,0,0,0
			c0.3,0.1,0.5,0.2,0.8,0.3c0,0,0,0,0.1,0c0.3,0.1,0.5,0.2,0.8,0.2c0,0,0.1,0,0.1,0c0.3,0.1,0.5,0.1,0.8,0.2c0,0,0,0,0.1,0
			c0.3,0,0.5,0.1,0.8,0.1c0.1,0,0.1,0,0.2,0c0.3,0,0.6,0,0.8,0c0.2,0,0.4,0,0.6,0c0.4,0,0.8-0.1,1.2-0.1c0.6-0.1,1.2-0.2,1.7-0.4
			c0.4-0.1,0.7-0.2,1.1-0.4c0.4-0.1,0.7-0.3,1-0.5c0.5-0.3,1-0.6,1.4-0.9c0.2-0.2,0.4-0.3,0.6-0.5c0.1-0.1,0.1-0.1,0.2-0.2
			c0.1-0.1,0.3-0.2,0.4-0.4c0.1-0.1,0.2-0.2,0.2-0.2c0.1-0.1,0.1-0.1,0.2-0.2c0.1-0.1,0.2-0.2,0.3-0.3c0-0.1,0.1-0.1,0.1-0.2
			c0.1-0.1,0.2-0.3,0.3-0.4c0,0,0-0.1,0.1-0.1c0.1-0.2,0.2-0.3,0.4-0.5c0,0,0.1-0.1,0.1-0.1c0.1-0.1,0.2-0.3,0.2-0.4
			c0-0.1,0.1-0.1,0.1-0.2c0.1-0.1,0.1-0.2,0.2-0.4c0-0.1,0.1-0.1,0.1-0.2c0.1-0.1,0.1-0.2,0.2-0.4c0-0.1,0.1-0.1,0.1-0.2
			c0.1-0.1,0.1-0.3,0.2-0.4c0-0.1,0-0.1,0.1-0.2c0.1-0.2,0.1-0.4,0.2-0.6c0,0,0-0.1,0-0.1c0-0.2,0.1-0.3,0.1-0.5
			c0-0.1,0-0.1,0.1-0.2c0-0.1,0.1-0.3,0.1-0.4c0-0.1,0-0.2,0-0.2c0-0.1,0-0.3,0.1-0.4c0-0.1,0-0.2,0-0.2c0-0.1,0-0.3,0-0.4
			c0-0.1,0-0.1,0-0.2c0-0.2,0-0.4,0-0.7c0-0.3,0-0.6,0-0.8c0-0.1,0-0.1,0-0.2c0-0.3-0.1-0.5-0.1-0.8c0,0,0,0,0-0.1
			c0-0.3-0.1-0.5-0.2-0.8c0,0,0-0.1,0-0.1c-0.1-0.3-0.1-0.5-0.2-0.8c0,0,0,0,0-0.1c-0.1-0.3-0.2-0.5-0.3-0.8c0,0,0,0,0,0
			c-0.1-0.3-0.2-0.5-0.4-0.8c0,0,0,0,0,0c-0.1-0.3-0.3-0.5-0.4-0.7c0-0.1-0.1-0.1-0.1-0.2c-0.1-0.2-0.2-0.3-0.3-0.5c0,0,0,0,0-0.1
			c-1-0.7-2-1.2-3.2-1.6c-1.2-0.4-2.4-0.6-3.7-0.6c-3.3,0-6.2,1.3-8.4,3.5c-2.1,2.1-3.5,5.1-3.5,8.3c0,1.3,0.2,2.5,0.6,3.6
			C150.3,127.7,150.8,128.8,151.5,129.7z"/>
		<path class="st0" d="M181.9,53.1h-116L6.6,93.9l0,33.8v18.9l59.3,40.8l116,0l59.1-40.8l0-52.7l-11.1-7.7L181.9,53.1z M236.7,99.5
			l0,44.6l-0.2,0.1l-55.9,38.7l-113.3,0l-53.5-37l-2.7-1.9l0-47.9l56.2-38.9l113.3,0l56.1,38.9V99.5z"/>
	</g>
</g>
</svg>
