<?xml version="1.0" encoding="utf-8"?>
<!-- Generator: Adobe Illustrator 20.0.0, SVG Export Plug-In . SVG Version: 6.00 Build 0)  -->
<svg version="1.1" id="Layer_1" xmlns="http://www.w3.org/2000/svg" xmlns:xlink="http://www.w3.org/1999/xlink" x="0px" y="0px"
	 viewBox="0 0 233.8 135" style="enable-background:new 0 0 233.8 135;" xml:space="preserve">
<style type="text/css">
	.st0{fill:#CCCCCC;}
</style>
<g>
	<g>
		<path class="st0" d="M68,124.7c0,3.1-2.4,3-2.4,3H51.1c-2.9,0-2.9-3-2.9-3v-20.1h-8v23.2c0,7.2,8,7.2,8,7.2h19.9
			c0,0,7.9-0.1,7.9-7.2c0-1.7,0-23.1,0-23.1h-8V124.7z"/>
		<path class="st0" d="M28.1,116.9l-18.3-0.8c0,0-2.1,0.1-2.1-2.3c0-2.6,1.9-2.7,2.1-2.7c0.2,0,15.4,0,15.4,0c2.8,0,2.7,2.6,2.7,2.6
			h8.4v-2.8c0-6.5-7.2-6.2-8.3-6.2c-1.2,0-18.2,0-19.6,0c-1.3,0-8.4,0.5-8.4,9.7c0,8.8,8.4,8.3,8.4,8.3l18.2,0.5c0,0,2-0.1,2.1,2.5
			c0,2.9-2,2.9-2,2.9H10.8c-2.4,0-2.4-3.1-2.4-3.1H0v2.1c0,7.2,7.3,7.4,8.5,7.4c1.1,0,19.5,0,19.5,0c8.3,0,8.5-6.5,8.5-9
			C36.5,116.8,28.1,116.9,28.1,116.9z"/>
		<path class="st0" d="M225.8,104.6v20.1c0,3.1-2.4,3-2.4,3h-14.5c-3,0-2.9-3-2.9-3v-20.1h-8v23.2c0,7.2,8,7.2,8,7.2h19.9
			c0,0,7.9-0.1,7.9-7.2c0-1.7,0-23.1,0-23.1L225.8,104.6z"/>
	</g>
	<path class="st0" d="M191.2,120.6c3.4-2.1,3-7,3-7c0-2.7-0.7-9-7-9c-1.5,0-28.2,0-28.2,0v30.3h8.1v-10.8h16.2c3.6,0,3.4,3,3.4,6.1
		c0,2.1,0,4.7,0,4.7h7.9v-4.8C194.6,122,191.2,120.6,191.2,120.6z M183.3,116.9h-16.2v-5.6h16.2c0,0,3.1-0.4,3.1,2.9
		C186.4,114.2,186.8,116.9,183.3,116.9z"/>
	<path class="st0" d="M140.6,104.6h-9.1L115.1,135h9.1l2.9-5.2h17.6l2.9,5.2h9.5L140.6,104.6z M130.4,123.2l5.6-10.6l5.5,10.6H130.4
		z"/>
	<path class="st0" d="M112.2,118.8c3.5-2,3.1-5.9,3.1-7.5c0-1-0.6-6.7-7-6.7c-0.5,0-28,0-28,0v30.3h28.4c6.5,0,6.9-7.9,6.9-7.9
		C115.8,119.6,112.2,118.8,112.2,118.8z M87.8,111.1h17.1c0,0,2.2-0.1,2.3,2.6c0,0,0.1,2.9-2.2,2.9H87.8V111.1z M105.4,128.6H87.8
		v-6.3h17.4c0,0,2.7-0.1,2.6,3.1C107.8,128.7,105.4,128.6,105.4,128.6z"/>
</g>
<path class="st0" d="M115.8,0C69.6,0,32.2,20.1,32.2,44.9s37.4,44.9,83.6,44.9c46.2,0,83.6-20.1,83.6-44.9C199.4,20.1,162,0,115.8,0
	z M91.6,68.5c-0.7,0-0.9-1.7-0.9-1.7s-1.3-4.7-2.4-10.1c-1.2-5.5-2.8-9.1-4.8-10.9c-1.9-1.7-6.3-2.3-7.9-2.6c-1.6-0.3-18-2.5-18-2.5
	s-10.3-1.4-10.8-1.4c-0.5-0.1-2-0.1-2-0.7c0-0.7,1.7-0.7,1.7-0.7l9.6-1.3c0,0,5.5-0.8,15.9-2.2c11.7-1.3,12.8-4,14.2-6.9
	s4.4-12.6,4.4-12.6s0.2-1.7,1-1.7c0.7,0,1,1.5,1,1.5s0.2,0.6,2.9,9s6.2,8.5,8.5,9.3c2.4,0.8,9.9,1.6,9.9,1.6s18.8,2.3,21.7,2.6
	c2.9,0.3,6.6,0.3,8.3,0.3c1.8,0,4.1-0.5,8.5-1c4.4-0.4,5.5-1.6,6.3-2.8c0.8-1.2,1.9-4.8,1.9-4.8s0.3-1.3,0.8-1.3s0.7,1.1,0.7,1.1
	s1,2.6,1.9,5s4.5,2.6,4.5,2.6l9,1.4c0,0,2.1,0,2.1,0.8s-2,0.8-2,0.8s-4.1,0.9-8.1,1.4c-3.9,0.5-5,1.6-5.5,2.8c-0.5,1.3-2,6.3-2,6.3
	s-0.3,1.2-0.8,1.2s-0.8-1.3-0.8-1.3s-1-4.1-1.8-6.3c-0.9-2.2-2.9-2.4-4.2-2.6s-6.3-0.9-10.8-1.1C139.1,39.4,126,41,126,41
	s-13.4,1.5-20.6,2.6c-7.2,1.1-8.3,5.9-9.1,8.1s-4,15.1-4,15.1S92.2,68.5,91.6,68.5z M164.6,71.2c-1.4,0.1-3.7,0.6-7.6,1
	c-3.9,0.5-4.5,1.1-5.3,1.9c-0.8,0.7-2.2,5.2-2.2,5.2s-0.2,1.1-0.7,1.1s-0.7-1.1-0.7-1.1s-0.9-2.7-1.3-3.7c-0.4-1-0.9-2.1-2.5-2.6
	c-1.5-0.5-5.4-1-7.2-1.2s-2.4-0.3-5.3-0.3s-6.8,0.7-10.7,1.3c-3.9,0.6-4,1-4.9,1.9s-2.1,6-2.1,6s-0.6,2.4-1.1,2.4s-1.1-2.2-1.1-2.2
	s-1.2-4-1.7-5.4s-1.3-1.7-2.5-2.2c-1.2-0.4-5.5-0.9-6.6-1.1c-1.1-0.1-7.7-0.8-7.7-1.7c0-0.9,8-1.5,8-1.5c4.1-0.4,6.4-0.9,7.7-1.7
	c1.4-0.8,2.3-4.2,2.6-5.4c0.3-1.1,0.9-2.5,1.2-2.5s0.7,0.8,1.2,2.6c0.5,1.8,1.5,4.6,3.5,5.5s4.6,1,7.5,1.4s4.9,0.6,8.6,0.5
	c3.7-0.1,7.5-0.9,9.6-1.3s2.5-1.3,3-2.2c0.5-0.8,1.2-3.3,1.4-3.7c0.1-0.4,0.3-1.7,1-1.7s1,1.9,1.4,3.1s0.6,3.6,3.7,4.3
	c3,0.7,8.8,1.3,10.7,1.5c1.9,0.3,2.5,0.4,2.5,0.9C166.9,71,166,71.1,164.6,71.2z M183.8,55.1c0,0-7,0.8-8.4,1.7
	c-1.4,0.9-2.2,1.5-3.3,6.2c-0.4,1.2-0.5,1.8-0.9,1.8s-1.1-2-1.8-4.7c-0.8-2.7-1.4-3.5-5.4-4c-3.9-0.6-5.6-0.7-7.7-0.7
	c-2.9,0-6.8,0.7-10.7,1.3c-3.9,0.6-4,1-4.9,1.9s-2.1,6.1-2.1,6.1s-0.6,2.4-1.1,2.4s-1.1-2.3-1.1-2.3s-1.2-4.1-1.7-5.5
	s-1.3-1.7-2.5-2.2c-1.2-0.4-5.5-0.9-6.6-1.1c-1.1-0.1-7.7-0.8-7.7-1.7c0-0.9,8-1.5,8-1.5c4.1-0.4,6.4-0.9,7.7-1.7
	c1.4-0.8,2.3-4.3,2.6-5.5c0.4-1.2,0.9-2.5,1.2-2.5s0.7,0.8,1.2,2.6c0.5,1.8,1.5,4.7,3.5,5.6s4.6,1,7.5,1.4c0,0,3.4,0.7,7,0.6
	s5.9-0.7,7.3-0.9c1.4-0.2,4-0.7,4.9-2.6c0.8-1.9,1.7-4.7,2.3-4.8c0.6,0,1.6,3.1,1.6,3.1s0.7,3,3.1,3.6c2.4,0.5,6.1,1.4,8,1.7
	c1.9,0.3,2.5,0.4,2.5,1C186.4,54.9,183.8,55.1,183.8,55.1z"/>
</svg>
